<svg xmlns="http://www.w3.org/2000/svg" viewBox="0 0 750 500"><g id="freepik--background-complete--inject-4"><g><g><g><g><path d="M673.734,325.676h-180.746c-3.232,0-5.862-2.63-5.862-5.862V56.54c0-3.232,2.63-5.862,5.862-5.862h180.746c3.232,0,5.862,2.629,5.862,5.862V319.814c0,3.233-2.63,5.862-5.862,5.862ZM492.988,50.928c-3.095,0-5.612,2.517-5.612,5.612V319.814c0,3.095,2.518,5.612,5.612,5.612h180.746c3.095,0,5.612-2.518,5.612-5.612V56.54c0-3.094-2.518-5.612-5.612-5.612h-180.746Z" style="fill:#e0e0e0;"></path><path d="M465.306,325.676h-180.747c-3.232,0-5.862-2.63-5.862-5.862V56.54c0-3.232,2.629-5.862,5.862-5.862h180.747c3.232,0,5.862,2.629,5.862,5.862V319.814c0,3.233-2.63,5.862-5.862,5.862ZM284.559,50.928c-3.094,0-5.612,2.517-5.612,5.612V319.814c0,3.095,2.518,5.612,5.612,5.612h180.747c3.095,0,5.612-2.518,5.612-5.612V56.54c0-3.094-2.518-5.612-5.612-5.612h-180.747Z" style="fill:#e0e0e0;"></path></g><path d="M257.012,325.676H76.266c-3.232,0-5.862-2.63-5.862-5.862V56.54c0-3.232,2.629-5.862,5.862-5.862h180.746c3.232,0,5.862,2.629,5.862,5.862V319.814c0,3.233-2.63,5.862-5.862,5.862ZM76.266,50.928c-3.094,0-5.612,2.517-5.612,5.612V319.814c0,3.095,2.518,5.612,5.612,5.612h180.746c3.095,0,5.612-2.518,5.612-5.612V56.54c0-3.094-2.517-5.612-5.612-5.612H76.266Z" style="fill:#e0e0e0;"></path></g><rect y="386.745" width="750" height=".12" style="fill:#e0e0e0;"></rect></g><g><rect x="653.626" y="416.121" width="55.729" height=".421" style="fill:#ebebeb;"></rect><rect x="495.044" y="420.687" width="14.627" height=".421" style="fill:#ebebeb;"></rect><rect x="40.645" y="403.324" width="72.675" height=".421" style="fill:#ebebeb;"></rect><rect x="128.299" y="403.324" width="10.655" height=".421" style="fill:#ebebeb;"></rect><rect x="173.586" y="410.428" width="157.613" height=".421" style="fill:#ebebeb;"></rect></g></g><g><rect x="109.499" y="74.019" width="94.485" height="98.404" style="fill:#e0e0e0;"></rect><g><rect x="113.854" y="78.664" width="85.775" height="89.113" style="fill:#fff;"></rect><g><rect x="162.488" y="117.069" width="19.243" height=".75" transform="translate(-36.193 122.417) rotate(-35.676)" style="fill:#e0e0e0;"></rect><rect x="171.137" y="121.214" width=".75" height="18.826" transform="translate(-29.143 209.479) rotate(-58.747)" style="fill:#e0e0e0;"></rect><rect x="156.623" y="132.548" width=".75" height="10.589" style="fill:#e0e0e0;"></rect><circle cx="156.997" cy="144.344" r="4.997" style="fill:#e6e6e6;"></circle><path d="M186.04,136.782c0,3.51-2.845,6.355-6.355,6.355s-6.355-2.845-6.355-6.355,2.845-6.355,6.355-6.355,6.355,2.845,6.355,6.355Z" style="fill:#f0f0f0;"></path><path d="M183.055,111.856c0,1.931-1.565,3.496-3.496,3.496s-3.496-1.565-3.496-3.496,1.565-3.496,3.496-3.496,3.496,1.565,3.496,3.496Z" style="fill:#e6e6e6;"></path><rect x="138.121" y="130.052" width="18.967" height=".75" transform="translate(-48.907 116.95) rotate(-37.541)" style="fill:#e0e0e0;"></rect><polygon points="157.542 122.871 137.399 109.523 137.813 108.898 156.63 121.368 154.503 100.953 155.249 100.875 157.542 122.871" style="fill:#e0e0e0;"></polygon><path d="M158.69,100.914c0,2.106-1.707,3.813-3.814,3.813s-3.813-1.707-3.813-3.813,1.707-3.813,3.813-3.813,3.814,1.707,3.814,3.813Z" style="fill:#f0f0f0;"></path><path d="M143.202,136.209c0,3.09-2.505,5.596-5.595,5.596s-5.596-2.505-5.596-5.596,2.505-5.595,5.596-5.595,5.595,2.505,5.595,5.595Z" style="fill:#e6e6e6;"></path><circle cx="135.07" cy="107.725" r="7.627" transform="translate(8.709 225.545) rotate(-81.571)" style="fill:#e6e6e6;"></circle><circle cx="158.13" cy="122.968" r="11.112" style="fill:#f0f0f0;"></circle></g></g><g style="opacity:.2;"><path d="M138.38,102.601c-.404-.563-1.814-1.697-4.688-.946-1.719,.598-2.705,1.386-3.741,2.882-1.036,1.496-1.311,3.944-.469,5.558,.264,.506,.647,.968,1.157,1.225,.51,.257,1.157,.279,1.635-.033,.916-.598,.803-1.97,1.33-2.929,.518-.942,1.598-1.394,2.588-1.813,.99-.419,2.054-.962,2.441-1.965,.25-.647,.151-1.417-.253-1.98Z" style="fill:#fff;"></path></g><g style="opacity:.2;"><path d="M155.691,98.565c-.161-.224-.72-.674-1.863-.376-.683,.238-1.075,.551-1.486,1.145-.412,.595-.521,1.567-.187,2.208,.105,.201,.257,.384,.46,.486,.203,.102,.46,.111,.649-.013,.364-.238,.319-.783,.529-1.164,.206-.374,.635-.554,1.028-.72,.393-.167,.816-.382,.97-.781,.099-.257,.06-.563-.101-.787Z" style="fill:#fff;"></path></g><g style="opacity:.2;"><path d="M180.798,109.524c-.161-.224-.72-.674-1.863-.376-.683,.238-1.075,.551-1.486,1.145-.411,.594-.521,1.567-.186,2.208,.105,.201,.257,.384,.46,.486,.203,.102,.46,.111,.649-.013,.364-.238,.319-.783,.529-1.164,.206-.374,.635-.553,1.028-.72,.393-.166,.816-.382,.97-.78,.099-.257,.06-.563-.101-.787Z" style="fill:#fff;"></path></g><g style="opacity:.2;"><path d="M181.356,132.91c-.273-.379-1.222-1.143-3.158-.637-1.158,.403-1.822,.934-2.52,1.942s-.883,2.657-.316,3.744c.178,.341,.436,.652,.779,.825,.343,.173,.78,.188,1.102-.022,.617-.403,.541-1.327,.896-1.973,.349-.635,1.077-.939,1.743-1.221s1.384-.648,1.645-1.324c.168-.436,.102-.954-.171-1.334Z" style="fill:#fff;"></path></g><g style="opacity:.2;"><path d="M158.849,140.988c-.253-.352-1.134-1.061-2.931-.591-1.074,.374-1.691,.867-2.338,1.802s-.82,2.466-.293,3.474c.165,.316,.405,.605,.723,.766s.723,.175,1.022-.02c.573-.374,.502-1.232,.832-1.831,.324-.589,.999-.871,1.618-1.133,.619-.262,1.284-.601,1.526-1.228,.156-.404,.095-.886-.158-1.238Z" style="fill:#fff;"></path></g><g style="opacity:.2;"><path d="M139.342,132.886c-.253-.352-1.134-1.06-2.931-.591-1.074,.374-1.691,.867-2.339,1.802-.647,.935-.82,2.466-.293,3.474,.165,.316,.405,.605,.723,.766s.723,.175,1.022-.02c.573-.374,.502-1.232,.832-1.831,.324-.589,.999-.871,1.618-1.133,.619-.262,1.284-.601,1.526-1.228,.156-.404,.095-.886-.158-1.238Z" style="fill:#fff;"></path></g><g style="opacity:.2;"><path d="M160.948,115.143c-.523-.729-2.347-2.195-6.066-1.224-2.224,.774-3.5,1.793-4.84,3.729s-1.696,5.104-.607,7.191c.342,.655,.837,1.252,1.497,1.584,.659,.332,1.497,.361,2.115-.042,1.186-.774,1.039-2.549,1.721-3.79,.67-1.218,2.068-1.803,3.348-2.345,1.28-.542,2.658-1.245,3.159-2.542,.323-.837,.196-1.833-.328-2.562Z" style="fill:#fff;"></path></g></g><g><g><rect x="236.607" y="215.557" width="103.012" height="5.764" style="fill:#e6e6e6;"></rect><rect x="247.18" y="219.937" width="5.042" height="8.916" style="fill:#e6e6e6;"></rect><rect x="323.058" y="219.937" width="5.042" height="8.916" style="fill:#e6e6e6;"></rect></g><g><g><path d="M287.969,210.592l-7.057-34.302h-26.581l-7.057,34.302c-.521,2.535,1.158,4.965,3.432,4.965h33.83c2.274,0,3.953-2.43,3.432-4.965Z" style="fill:#ebebeb;"></path><g><path d="M268.32,176.29h-14.661c-.798,0-1.445-.647-1.445-1.445h0c0-.798,.647-1.445,1.445-1.445h14.661v2.889Z" style="fill:#e6e6e6;"></path><path d="M266.925,176.29h14.661c.798,0,1.445-.647,1.445-1.445h0c0-.798-.647-1.445-1.445-1.445h-14.661v2.889Z" style="fill:#e6e6e6;"></path></g><path d="M279.378,176.29h-23.414l-6.548,33.953c-.291,1.51,.712,2.942,2.063,2.942h32.385c1.35,0,2.354-1.431,2.063-2.942l-6.548-33.953Z" style="fill:#ebebeb;"></path><path d="M259.84,175.032h-5.258c-.263,0-.476-.213-.476-.476h0c0-.263,.213-.476,.476-.476h5.258c.263,0,.476,.213,.476,.476h0c0,.263-.213,.476-.476,.476Z" style="fill:#fff; opacity:.3;"></path><path d="M261.714,175.032h-.534c-.263,0-.476-.213-.476-.476h0c0-.263,.213-.476,.476-.476h.534c.263,0,.476,.213,.476,.476h0c0,.263-.213,.476-.476,.476Z" style="fill:#fff; opacity:.3;"></path><path d="M285.926,210.244l-3.119-16.173-30.308,.186-3.083,15.988c-.291,1.51,.712,2.942,2.063,2.942h32.385c1.35,0,2.354-1.431,2.063-2.942Z" style="fill:#e0e0e0;"></path><path d="M267.687,193.422c-8.388,0-15.188,.373-15.188,.834s6.8,.834,15.188,.834,15.188-.373,15.188-.834-6.8-.834-15.188-.834Z" style="fill:#f5f5f5;"></path></g><g style="opacity:.3;"><path d="M260.841,181.926c.908,.466,.656,1.708,.579,2.207-.553,3.579-.728,6.224-1.479,9.786-.232,1.099-.631,2.21-1.408,3.022s-2.15,1.171-3.034,.478c-.958-.751-.859-2.204-.668-3.407,.395-2.487,.79-4.974,1.185-7.461,.159-1.004,.325-2.027,.785-2.933,.461-.906,1.274-1.693,2.277-1.856,0,0,1.215-.117,1.763,.164Z" style="fill:#fff;"></path></g><path d="M258.007,205.029c-.362,1.65-1.582,2.785-2.726,2.534-1.144-.251-1.778-1.792-1.416-3.442s1.582-2.785,2.726-2.534c1.144,.251,1.778,1.792,1.416,3.442Z" style="fill:#fff; opacity:.3;"></path></g><g><g><path d="M331.87,210.592l-7.057-34.302h-26.581l-7.057,34.302c-.522,2.535,1.158,4.965,3.432,4.965h33.83c2.274,0,3.953-2.43,3.432-4.965Z" style="fill:#f0f0f0;"></path><g><path d="M312.22,176.29h-14.661c-.798,0-1.445-.647-1.445-1.445h0c0-.798,.647-1.445,1.445-1.445h14.661v2.889Z" style="fill:#f0f0f0;"></path><path d="M310.825,176.29h14.661c.798,0,1.445-.647,1.445-1.445h0c0-.798-.647-1.445-1.445-1.445h-14.661v2.889Z" style="fill:#f0f0f0;"></path></g><path d="M323.278,176.29h-23.414l-6.548,33.953c-.291,1.51,.712,2.942,2.063,2.942h32.385c1.35,0,2.354-1.431,2.063-2.942l-6.548-33.953Z" style="fill:#f5f5f5;"></path><path d="M303.74,175.032h-5.258c-.263,0-.476-.213-.476-.476h0c0-.263,.213-.476,.476-.476h5.258c.263,0,.476,.213,.476,.476h0c0,.263-.213,.476-.476,.476Z" style="fill:#fff; opacity:.3;"></path><path d="M305.614,175.032h-.534c-.263,0-.476-.213-.476-.476h0c0-.263,.213-.476,.476-.476h.534c.263,0,.476,.213,.476,.476h0c0,.263-.213,.476-.476,.476Z" style="fill:#fff; opacity:.3;"></path></g><path d="M304.741,181.926c.908,.466,.657,1.708,.579,2.207-.553,3.579-.728,6.224-1.479,9.786-.232,1.099-.631,2.21-1.408,3.022-.777,.811-2.15,1.171-3.034,.478-.958-.751-.859-2.204-.668-3.407,.395-2.487,.79-4.974,1.184-7.461,.159-1.004,.325-2.027,.785-2.933,.461-.906,1.274-1.693,2.277-1.856,0,0,1.215-.117,1.762,.164Z" style="fill:#fafafa;"></path><path d="M300.677,204.082c-.362,1.65-1.582,2.785-2.726,2.534s-1.778-1.792-1.416-3.442c.362-1.65,1.582-2.785,2.726-2.534,1.144,.251,1.778,1.792,1.416,3.442Z" style="fill:#fafafa;"></path></g></g><path d="M647.495,326.772c-5.247,1.656-8.596,7.816-7.132,13.12s7.498,8.875,12.851,7.605c1.079,4.882,6.494,8.346,11.378,7.278,4.884-1.067,8.361-6.475,7.305-11.362,6.673,2.561,15.074-1.17,17.649-7.837,2.575-6.668-1.137-15.076-7.799-17.666,3.146-5.694,2.105-13.395-2.439-18.05s-12.218-5.881-17.986-2.873c-5.768,3.008-9.156,10.001-7.941,16.392-3.547-1.592-8.217,.148-9.859,3.673-1.641,3.524,.033,8.219,3.534,9.909" style="fill:#f0f0f0;"></path><circle cx="703.532" cy="304.488" r="6.937" style="fill:#f0f0f0;"></circle><g><rect x="659.987" y="192.637" width="49.979" height="16.806" style="fill:#f0f0f0;"></rect><rect x="648.727" y="209.443" width="49.979" height="16.806" style="fill:#e6e6e6;"></rect></g><g><rect x="329.925" y="64.031" width="49.979" height="16.806" style="fill:#f0f0f0;"></rect><rect x="318.665" y="80.837" width="49.979" height="16.806" style="fill:#e6e6e6;"></rect></g><rect x="416.922" y="346.498" width="49.979" height="16.806" style="fill:#e6e6e6;"></rect><rect x="564.415" y="40.027" width="49.979" height="16.806" style="fill:#e6e6e6;"></rect><rect x="45.665" y="235.156" width="49.979" height="16.806" style="fill:#e6e6e6;"></rect></g><g id="freepik--Shadow--inject-4"><path d="M713.92,451.334c0,3.387-147.619,6.132-329.717,6.132s-329.717-2.745-329.717-6.132,147.619-6.132,329.717-6.132,329.717,2.745,329.717,6.132Z" style="fill:#f5f5f5;"></path></g><g id="freepik--Glass--inject-4"><g><path d="M369.68,410.842c-.129,0-.239-.1-.249-.231-.266-3.528-8.253-6.541-8.334-6.571-.129-.048-.195-.192-.147-.321,.048-.129,.193-.196,.322-.147,.341,.127,8.368,3.157,8.659,7.003,.01,.138-.093,.258-.23,.268h-.02Z" style="fill:#263238;"></path><g><path d="M342.396,363.101v23.017c0,9.026,7.033,16.391,15.915,16.961v27.722c-.097,4.893-3.818,6.804-5.609,7.443h-3.921v1.531h22.406v-1.531h-4.389c-1.791-.639-5.512-2.55-5.609-7.443v-27.759c8.564-.888,15.242-8.125,15.242-16.924v-23.017h-34.034Z" style="fill:#90CAF9;"></path><path d="M376.43,386.118v-23.017h-34.034v23.017c0,9.026,7.033,16.391,15.915,16.961v27.722c-.097,4.893-3.818,6.804-5.609,7.443h-3.921v1.531h22.406v-1.531h-4.389c-1.791-.639-5.512-2.55-5.609-7.443v-27.76c8.564-.888,15.242-8.125,15.242-16.924Z" style="fill:#fff; opacity:.7;"></path><path d="M376.43,362.866c0,.848-7.619,1.535-17.017,1.535s-17.017-.687-17.017-1.535,7.619-1.535,17.017-1.535,17.017,.687,17.017,1.535Z" style="fill:#fff; opacity:.5;"></path></g><path d="M345.52,363.752c-.179-.014-.297,4.17,3.362,4.751,3.66,.581,3.485-2.614,5.344-1.162,1.859,1.452,.871,3.485,3.776,3.66,2.905,.174,2.324-4.183,5.17-4.473,2.846-.29,4.608-2.29,4.608-2.29,0,0-11.217,.384-22.261-.486Z" style="fill:#90CAF9;"></path><polygon points="365.883 409.837 364.717 416.175 371.925 431.418 383.424 425.98 375.741 411.28 369.423 408.253 365.883 409.837" style="fill:#90CAF9;"></polygon><path d="M369.197,411.132c-.009,0-.019,0-.028-.002-2.69-.298-5.294-1.04-7.738-2.205-.974-.464-2.078-1.067-2.884-2.024-.865-1.028-1.199-2.344-.872-3.435,.04-.131,.18-.209,.311-.167,.132,.039,.208,.179,.167,.312-.279,.93,.019,2.067,.776,2.968,.744,.884,1.791,1.454,2.716,1.896,2.394,1.141,4.943,1.867,7.578,2.16,.137,.015,.236,.139,.221,.275-.014,.128-.123,.223-.248,.223Z" style="fill:#263238;"></path><path d="M370.094,411.441c0,.603-.489,1.092-1.092,1.092s-1.092-.489-1.092-1.092,.489-1.092,1.092-1.092,1.092,.489,1.092,1.092Z" style="fill:#263238;"></path><path d="M376.431,424.659c-.093,0-.183-.053-.226-.142l-4.388-9.147c-.06-.125-.007-.274,.118-.334,.124-.058,.274-.007,.333,.117l4.388,9.147c.06,.125,.007,.274-.117,.334-.035,.017-.072,.024-.108,.024Z" style="fill:#263238;"></path><path d="M374.07,424.238c-.089,0-.176-.049-.221-.133l-3.223-6.095c-.064-.122-.018-.273,.104-.338,.121-.063,.272-.019,.338,.104l3.223,6.095c.064,.122,.018,.273-.104,.338-.037,.02-.077,.029-.117,.029Z" style="fill:#263238;"></path></g></g><g id="freepik--Jar--inject-4"><g><g><path d="M669.015,379.209v-30.38h-12.86v30.388c-10.746,2.845-18.668,12.635-18.668,24.276,0,8.572,4.295,16.141,10.85,20.672l28.664-.096c6.477-4.542,10.711-12.064,10.711-20.575,0-11.652-7.936-21.449-18.697-24.284Z" style="fill:#90CAF9;"></path><path d="M669.015,379.209v-30.38h-12.86v30.388c-10.746,2.845-18.668,12.635-18.668,24.276,0,8.572,4.295,16.141,10.85,20.672l28.664-.096c6.477-4.542,10.711-12.064,10.711-20.575,0-11.652-7.936-21.449-18.697-24.284Z" style="fill:#fff; opacity:.7;"></path><path d="M649.036,421.965c-5.869-4.316-9.352-11.171-9.352-18.472,0-10.387,7.004-19.496,17.033-22.152l1.635-.433v-31.297h8.465v31.292l1.638,.432c10.044,2.647,17.059,11.759,17.059,22.159,0,7.24-3.437,14.06-9.228,18.38l-27.25,.092Z" style="fill:#90CAF9; opacity:.3;"></path><rect x="653.987" y="346.159" width="17.028" height="3.452" rx=".782" ry=".782" style="fill:#90CAF9;"></rect><rect x="653.987" y="346.159" width="17.028" height="3.452" rx=".782" ry=".782" style="fill:#fff; opacity:.7;"></rect><path d="M639.684,403.493c0,7.301,3.483,14.156,9.352,18.472l27.25-.092c5.791-4.32,9.228-11.14,9.228-18.38h-45.83Z" style="fill:#90CAF9;"></path><path d="M685.449,403.493c0,.642-10.245,1.162-22.882,1.162s-22.882-.52-22.882-1.162,10.245-1.162,22.882-1.162,22.882,.52,22.882,1.162Z" style="fill:#90CAF9;"></path><path d="M685.449,403.493c0,.642-10.245,1.162-22.882,1.162s-22.882-.52-22.882-1.162,10.245-1.162,22.882-1.162,22.882,.52,22.882,1.162Z" style="opacity:.3;"></path><rect x="656.155" y="349.611" width="12.86" height="1.158" style="opacity:.3;"></rect><g style="opacity:.3;"><path d="M656.39,385.643c1.118,.439,1.986,1.439,2.057,2.638,.071,1.199-.452,2.359-1.125,3.354-.673,.995-1.502,1.877-2.162,2.88-.786,1.194-1.316,2.534-1.975,3.803-.658,1.269-1.481,2.506-2.678,3.288-1.196,.782-2.836,1.019-4.054,.27-1.483-.911-1.881-2.9-1.782-4.638,.293-5.173,3.979-9.99,8.896-11.624,0,0,1.575-.462,2.823,.028Z" style="fill:#fff;"></path></g><path d="M650.187,409.065c0,1.71-1.386,3.097-3.097,3.097s-3.097-1.387-3.097-3.097,1.386-3.097,3.097-3.097,3.097,1.387,3.097,3.097Z" style="fill:#fff; opacity:.3;"></path><path d="M676.24,419.4c1.264-2.874,3.195-7.116,4.179-10.021,1.052-2.863,2.246-7.409,3.073-10.414,4.034,7.047,.307,17.495-7.252,20.435h0Z" style="fill:#fff; opacity:.3;"></path><g><path d="M656.19,410.396c0,.671-.543,1.214-1.214,1.214s-1.214-.544-1.214-1.214,.543-1.214,1.214-1.214,1.214,.543,1.214,1.214Z" style="opacity:.1;"></path><path d="M667.622,415.979c0,.671-.544,1.214-1.214,1.214s-1.214-.544-1.214-1.214,.543-1.214,1.214-1.214,1.214,.544,1.214,1.214Z" style="opacity:.1;"></path><path d="M669.421,414.515c0,.463-.376,.839-.839,.839s-.839-.376-.839-.839,.376-.839,.839-.839,.839,.376,.839,.839Z" style="opacity:.1;"></path><circle cx="658.228" cy="414.405" r="2.243" style="opacity:.1;"></circle></g></g><path d="M689.473,437.278l-7.261-17.613h2.6c.822,0,1.488-.666,1.488-1.488h0v-.572c0-.822-.666-1.488-1.488-1.488h-44.45c-.822,0-1.488,.666-1.488,1.488h0v.572c0,.822,.666,1.488,1.488,1.488h2.6l-7.212,17.646c-.311,.72,.262,1.03,.998,1.325,.736,.294,1.341,.49,1.635-.229l7.686-18.742h15.078v18.333c0,.785,.638,.85,1.439,.85s1.423,0,1.423-.85v-18.333h15.095l7.735,18.644c.294,.72,.916,.54,1.635,.229,.72-.311,1.243-.54,.998-1.259Z" style="fill:#263238;"></path><g style="opacity:.6;"><path d="M689.473,437.278l-7.261-17.613h2.6c.822,0,1.488-.666,1.488-1.488h0v-.572c0-.822-.666-1.488-1.488-1.488h-44.45c-.822,0-1.488,.666-1.488,1.488h0v.572c0,.822,.666,1.488,1.488,1.488h2.6l-7.212,17.646c-.311,.72,.262,1.03,.998,1.325,.736,.294,1.341,.49,1.635-.229l7.686-18.742h15.078v18.333c0,.785,.638,.85,1.439,.85s1.423,0,1.423-.85v-18.333h15.095l7.735,18.644c.294,.72,.916,.54,1.635,.229,.72-.311,1.243-.54,.998-1.259Z" style="fill:#fff;"></path></g></g></g><g id="freepik--Test_tubes--inject-4"><g><g><g><path d="M436.137,392.414c0-1.817-1.473-3.29-3.289-3.29h-10.051c-1.817,0-3.29,1.473-3.29,3.29,0,1.643,1.208,2.993,2.783,3.238v30.703c0,3.055,2.477,5.532,5.532,5.532s5.532-2.477,5.532-5.532v-30.703c1.574-.245,2.783-1.595,2.783-3.238Z" style="fill:#90CAF9;"></path><path d="M436.137,392.414c0-1.817-1.473-3.29-3.289-3.29h-10.051c-1.817,0-3.29,1.473-3.29,3.29,0,1.643,1.208,2.993,2.783,3.238v30.703c0,3.055,2.477,5.532,5.532,5.532s5.532-2.477,5.532-5.532v-30.703c1.574-.245,2.783-1.595,2.783-3.238Z" style="fill:#fff; opacity:.6;"></path></g><path d="M423.45,395.632h8.744v32.291c0,1.313-1.066,2.378-2.378,2.378h-3.988c-1.313,0-2.378-1.066-2.378-2.378v-32.291h0Z" style="fill:#fff; opacity:.2;"></path><path d="M427.822,430.302h0c-2.415,0-4.372-1.957-4.372-4.372v-12.582h8.744v12.582c0,2.415-1.957,4.372-4.372,4.372Z" style="fill:#90CAF9;"></path><rect x="422.29" y="395.653" width="11.065" height="1.044" style="opacity:.2;"></rect></g><g><g><path d="M457.069,392.414c0-1.817-1.473-3.29-3.289-3.29h-10.051c-1.817,0-3.289,1.473-3.289,3.29,0,1.643,1.208,2.993,2.783,3.238v30.703c0,3.055,2.477,5.532,5.532,5.532s5.532-2.477,5.532-5.532v-30.703c1.574-.245,2.783-1.595,2.783-3.238Z" style="fill:#90CAF9;"></path><path d="M457.069,392.414c0-1.817-1.473-3.29-3.289-3.29h-10.051c-1.817,0-3.289,1.473-3.289,3.29,0,1.643,1.208,2.993,2.783,3.238v30.703c0,3.055,2.477,5.532,5.532,5.532s5.532-2.477,5.532-5.532v-30.703c1.574-.245,2.783-1.595,2.783-3.238Z" style="fill:#fff; opacity:.6;"></path></g><path d="M444.382,395.632h8.744v32.291c0,1.313-1.066,2.378-2.378,2.378h-3.988c-1.313,0-2.378-1.066-2.378-2.378v-32.291h0Z" style="fill:#fff; opacity:.2;"></path><path d="M444.382,406.946h8.744v18.984c0,2.413-1.959,4.372-4.372,4.372h0c-2.413,0-4.372-1.959-4.372-4.372v-18.984h0Z" style="fill:#90CAF9;"></path><rect x="443.222" y="395.653" width="11.065" height="1.044" style="opacity:.2;"></rect></g><g><g><path d="M475.726,392.414c0-1.817-1.473-3.29-3.289-3.29h-10.051c-1.817,0-3.289,1.473-3.289,3.29,0,1.643,1.208,2.993,2.783,3.238v30.703c0,3.055,2.477,5.532,5.532,5.532s5.532-2.477,5.532-5.532v-30.703c1.574-.245,2.783-1.595,2.783-3.238Z" style="fill:#90CAF9;"></path><path d="M475.726,392.414c0-1.817-1.473-3.29-3.289-3.29h-10.051c-1.817,0-3.289,1.473-3.289,3.29,0,1.643,1.208,2.993,2.783,3.238v30.703c0,3.055,2.477,5.532,5.532,5.532s5.532-2.477,5.532-5.532v-30.703c1.574-.245,2.783-1.595,2.783-3.238Z" style="fill:#fff; opacity:.6;"></path></g><path d="M463.039,395.632h8.744v32.291c0,1.313-1.066,2.378-2.378,2.378h-3.988c-1.313,0-2.378-1.066-2.378-2.378v-32.291h0Z" style="fill:#fff; opacity:.2;"></path><path d="M467.411,430.302h0c-2.415,0-4.372-1.957-4.372-4.372v-5.968h8.744v5.968c0,2.415-1.957,4.372-4.372,4.372Z" style="fill:#90CAF9;"></path><rect x="461.878" y="395.653" width="11.065" height="1.044" style="opacity:.2;"></rect></g><g><path d="M483.579,400.553c.71,0,1.285-.575,1.285-1.285v-1.286c0-.71-.575-1.286-1.285-1.286h-71.991c-.71,0-1.285,.576-1.285,1.286v1.286c0,.71,.575,1.285,1.285,1.285h2.031v35.996h-2.031c-.71,0-1.285,.575-1.285,1.285v1.286c0,.71,.575,1.285,1.285,1.285h71.991c.71,0,1.285-.575,1.285-1.285v-1.286c0-.71-.575-1.285-1.285-1.285h-1.967v-35.996h1.967Zm-5.309,35.996h-61.437v-35.996h61.437v35.996Z" style="fill:#263238;"></path></g></g></g><g id="freepik--Device--inject-4"><g><g><g><polygon points="508.804 436.373 527.978 363.188 630.086 363.188 609.104 435.356 508.804 436.373" style="fill:#263238;"></polygon><polygon points="508.804 436.373 527.978 363.188 630.086 363.188 609.104 435.356 508.804 436.373" style="fill:#fff; opacity:.7;"></polygon></g><g><rect x="465.622" y="434.609" width="143.68" height="4.554" style="fill:#263238;"></rect><rect x="465.622" y="434.609" width="143.68" height="4.554" style="fill:#fff; opacity:.7;"></rect></g></g><circle cx="574.317" cy="402.805" r="5.942" style="fill:#263238;"></circle><polygon points="509.267 434.609 513.892 434.609 532.654 363.188 527.978 363.188 509.267 434.609" style="opacity:.2;"></polygon></g></g><g id="freepik--Board--inject-4"><g><g><rect x="360.342" y="80.837" width="278.704" height="228.245" style="fill:#263238;"></rect><rect x="369.505" y="89.678" width="261.852" height="210.561" style="fill:#fff;"></rect></g><polygon points="631.357 89.678 631.357 300.24 639.046 309.081 639.046 80.837 631.357 89.678" style="fill:#fff; opacity:.2;"></polygon><g><rect x="536.532" y="132.625" width="58.561" height="52.249" style="fill:#90CAF9;"></rect><g style="opacity:.6;"><rect x="536.532" y="132.625" width="58.561" height="52.249" style="fill:#fff;"></rect></g><g><rect x="538.605" y="134.939" width="54.608" height="47.62" style="fill:#90CAF9;"></rect><path d="M593.214,182.559v-21.157l-11.178-9.518-13.117,14.235-13.732-7.157c-.139-.073-.31-.047-.422,.063l-16.158,11.848v11.685h54.608Z" style="opacity:.2;"></path><path d="M572.075,147.506c0,3.259-2.581,5.902-5.765,5.902s-5.765-2.642-5.765-5.902,2.581-5.902,5.765-5.902,5.765,2.642,5.765,5.902Z" style="opacity:.2;"></path></g></g><g><rect x="455.14" y="247.224" width="44.023" height="39.277" style="fill:#90CAF9;"></rect><g style="opacity:.6;"><rect x="455.14" y="247.224" width="44.023" height="39.277" style="fill:#fff;"></rect></g><g><rect x="456.698" y="248.963" width="41.051" height="35.798" style="fill:#90CAF9;"></rect><path d="M497.75,284.761v-15.905l-8.403-7.155-9.86,10.701-10.323-5.38c-.105-.055-.233-.036-.318,.047l-12.147,8.907v8.784h41.051Z" style="opacity:.2;"></path><path d="M481.859,258.41c0,2.45-1.94,4.436-4.334,4.436s-4.334-1.986-4.334-4.436,1.94-4.436,4.334-4.436,4.334,1.986,4.334,4.436Z" style="opacity:.2;"></path></g></g><g><rect x="392.019" y="172.463" width="58.561" height="52.248" style="fill:#90CAF9;"></rect><g style="opacity:.6;"><rect x="392.019" y="172.463" width="58.561" height="52.248" style="fill:#fff;"></rect></g><g><rect x="394.092" y="174.778" width="54.608" height="47.62" style="fill:#90CAF9;"></rect><path d="M448.701,222.397v-21.157l-11.178-9.517-13.117,14.235-13.732-7.157c-.14-.073-.31-.047-.422,.063l-16.158,11.848v11.685h54.608Z" style="opacity:.2;"></path><path d="M427.562,187.344c0,3.259-2.581,5.901-5.765,5.901s-5.765-2.642-5.765-5.901,2.581-5.902,5.765-5.902,5.765,2.642,5.765,5.902Z" style="opacity:.2;"></path></g></g><g><rect x="394.663" y="113.45" width="43.22" height="43.22" style="fill:#90CAF9;"></rect><g><path d="M430.725,126.306h-28.68c-.138,0-.25-.112-.25-.25s.112-.25,.25-.25h28.68c.138,0,.25,.112,.25,.25s-.112,.25-.25,.25Z" style="fill:#263238;"></path><path d="M430.725,131.54h-28.68c-.138,0-.25-.112-.25-.25s.112-.25,.25-.25h28.68c.138,0,.25,.112,.25,.25s-.112,.25-.25,.25Z" style="fill:#263238;"></path><path d="M430.725,136.773h-28.68c-.138,0-.25-.112-.25-.25s.112-.25,.25-.25h28.68c.138,0,.25,.112,.25,.25s-.112,.25-.25,.25Z" style="fill:#263238;"></path><path d="M430.725,142.007h-28.68c-.138,0-.25-.112-.25-.25s.112-.25,.25-.25h28.68c.138,0,.25,.112,.25,.25s-.112,.25-.25,.25Z" style="fill:#263238;"></path></g></g><rect x="565.813" y="124.179" width="6.808" height="14.222" style="fill:#263238;"></rect><g><g><rect x="506.448" y="229.493" width="105.003" height="62.317" style="fill:#90CAF9;"></rect><rect x="506.448" y="229.493" width="105.003" height="62.317" style="fill:#fff; opacity:.7;"></rect></g><path d="M522.402,264.293l-.334-.371c.445-.402,12.613-12.416,12.736-12.537l.127-.125,12.106,5.958,11.933-14.039,.185,.267,11.982,17.267,11.618-7.582,.273,.418-12.024,7.848-12.075-17.398-11.763,13.841-12.138-5.974c-1.374,1.356-12.192,12.036-12.627,12.428Z" style="fill:#263238;"></path><rect x="520.349" y="269.571" width="5.683" height="12.591" style="fill:#90CAF9;"></rect><rect x="532.049" y="261.25" width="5.683" height="20.912" style="fill:#90CAF9;"></rect><rect x="543.972" y="263.353" width="5.683" height="18.809" style="fill:#90CAF9;"></rect><rect x="556.109" y="251.563" width="5.683" height="30.599" style="fill:#90CAF9;"></rect><rect x="568.375" y="267.788" width="5.683" height="14.374" style="fill:#90CAF9;"></rect><path d="M526.244,262.681c0,1.686-1.367,3.053-3.053,3.053s-3.053-1.367-3.053-3.053,1.367-3.053,3.053-3.053,3.053,1.367,3.053,3.053Z" style="fill:#90CAF9;"></path><path d="M537.944,251.563c0,1.686-1.367,3.053-3.053,3.053s-3.053-1.367-3.053-3.053,1.367-3.053,3.053-3.053,3.053,1.367,3.053,3.053Z" style="fill:#90CAF9;"></path><path d="M550.155,256.575c0,1.686-1.367,3.053-3.053,3.053s-3.053-1.367-3.053-3.053,1.367-3.053,3.053-3.053,3.053,1.367,3.053,3.053Z" style="fill:#90CAF9;"></path><path d="M562.003,243.588c0,1.686-1.367,3.053-3.053,3.053s-3.053-1.367-3.053-3.053,1.367-3.053,3.053-3.053,3.053,1.367,3.053,3.053Z" style="fill:#90CAF9;"></path><circle cx="571.071" cy="261.054" r="3.053" style="fill:#90CAF9;"></circle><rect x="580.52" y="260.582" width="5.683" height="21.581" style="fill:#90CAF9;"></rect><rect x="532.049" y="261.25" width="5.683" height="20.912" style="opacity:.3;"></rect><rect x="556.109" y="251.563" width="5.683" height="30.599" style="opacity:.3;"></rect><rect x="580.52" y="260.582" width="5.683" height="21.581" style="opacity:.3;"></rect><rect x="593.092" y="267.788" width="5.683" height="14.374" style="fill:#90CAF9;"></rect><polygon points="595.812 260.8 582.771 253.559 583.014 253.121 596.055 260.362 595.812 260.8" style="fill:#263238;"></polygon><path d="M586.627,253.34c0,1.686-1.367,3.053-3.053,3.053s-3.053-1.367-3.053-3.053,1.367-3.053,3.053-3.053,3.053,1.367,3.053,3.053Z" style="fill:#90CAF9;"></path><path d="M598.987,260.582c0,1.686-1.367,3.053-3.053,3.053s-3.053-1.367-3.053-3.053,1.367-3.053,3.053-3.053,3.053,1.367,3.053,3.053Z" style="fill:#90CAF9;"></path></g><rect x="402.517" y="167.222" width="4.401" height="11.372" style="fill:#263238;"></rect><rect x="440.955" y="219.026" width="4.401" height="11.372" style="fill:#263238;"></rect><g><g><rect x="457.131" y="107.831" width="70.222" height="95.724" style="fill:#90CAF9;"></rect><rect x="457.131" y="107.831" width="70.222" height="95.724" style="fill:#fff; opacity:.7;"></rect></g><path d="M501.819,115.726h-20.57c-.138,0-.25-.112-.25-.25s.112-.25,.25-.25h20.57c.138,0,.25,.112,.25,.25s-.112,.25-.25,.25Z" style="fill:#263238;"></path><path d="M475.098,136.972h-8.198c-.138,0-.25-.112-.25-.25s.112-.25,.25-.25h8.198c.138,0,.25,.112,.25,.25s-.112,.25-.25,.25Z" style="fill:#263238;"></path><path d="M515.854,122.995h-8.198c-.138,0-.25-.112-.25-.25s.112-.25,.25-.25h8.198c.138,0,.25,.112,.25,.25s-.112,.25-.25,.25Z" style="fill:#263238;"></path><path d="M515.854,125.407h-8.198c-.138,0-.25-.112-.25-.25s.112-.25,.25-.25h8.198c.138,0,.25,.112,.25,.25s-.112,.25-.25,.25Z" style="fill:#263238;"></path><path d="M475.688,122.995h-8.198c-.138,0-.25-.112-.25-.25s.112-.25,.25-.25h8.198c.138,0,.25,.112,.25,.25s-.112,.25-.25,.25Z" style="fill:#263238;"></path><path d="M516.483,142.802h-49.584c-.138,0-.25-.112-.25-.25s.112-.25,.25-.25h49.584c.138,0,.25,.112,.25,.25s-.112,.25-.25,.25Z" style="fill:#263238;"></path><path d="M516.483,146.838h-49.584c-.138,0-.25-.112-.25-.25s.112-.25,.25-.25h49.584c.138,0,.25,.112,.25,.25s-.112,.25-.25,.25Z" style="fill:#263238;"></path><path d="M516.483,150.875h-49.584c-.138,0-.25-.112-.25-.25s.112-.25,.25-.25h49.584c.138,0,.25,.112,.25,.25s-.112,.25-.25,.25Z" style="fill:#263238;"></path><path d="M516.483,154.911h-49.584c-.138,0-.25-.112-.25-.25s.112-.25,.25-.25h49.584c.138,0,.25,.112,.25,.25s-.112,.25-.25,.25Z" style="fill:#263238;"></path><path d="M516.483,158.947h-49.584c-.138,0-.25-.112-.25-.25s.112-.25,.25-.25h49.584c.138,0,.25,.112,.25,.25s-.112,.25-.25,.25Z" style="fill:#263238;"></path><path d="M516.483,162.983h-49.584c-.138,0-.25-.112-.25-.25s.112-.25,.25-.25h49.584c.138,0,.25,.112,.25,.25s-.112,.25-.25,.25Z" style="fill:#263238;"></path><path d="M516.483,167.02h-49.584c-.138,0-.25-.112-.25-.25s.112-.25,.25-.25h49.584c.138,0,.25,.112,.25,.25s-.112,.25-.25,.25Z" style="fill:#263238;"></path><path d="M491.534,171.056h-24.635c-.138,0-.25-.112-.25-.25s.112-.25,.25-.25h24.635c.138,0,.25,.112,.25,.25s-.112,.25-.25,.25Z" style="fill:#263238;"></path><path d="M517.555,196.824h-50.655c-.138,0-.25-.112-.25-.25s.112-.25,.25-.25h50.655c.138,0,.25,.112,.25,.25s-.112,.25-.25,.25Z" style="fill:#263238;"></path><path d="M514.556,186.523h-12.318c-.138,0-.25-.112-.25-.25s.112-.25,.25-.25h12.318c.138,0,.25,.112,.25,.25s-.112,.25-.25,.25Z" style="fill:#263238;"></path><path d="M500.333,191.29c-1.484,0-2.994-.439-4.318-1.279-.871-.552-2-1.507-2.426-2.919-.483-1.604,.129-3.568,1.522-4.885,1.124-1.062,2.716-1.774,4.731-2.118,.142-.025,.265,.069,.288,.205,.023,.136-.068,.265-.204,.289-1.917,.326-3.421,.995-4.472,1.988-1.26,1.191-1.817,2.95-1.388,4.377,.382,1.265,1.415,2.134,2.215,2.642,1.721,1.09,3.77,1.462,5.622,1.018,1.949-.466,3.59-1.853,4.282-3.62,.724-1.848,.341-4.02-.952-5.405-.944-1.011-2.373-1.646-4.024-1.79-1.645-.141-3.296,.21-4.55,.534-.137,.035-.271-.046-.305-.18s.046-.27,.18-.305c1.292-.333,2.993-.694,4.718-.547,1.774,.153,3.318,.845,4.347,1.947,1.422,1.523,1.845,3.906,1.052,5.929-.751,1.917-2.525,3.42-4.63,3.923-.552,.132-1.118,.197-1.688,.197Z" style="fill:#90CAF9;"></path><path d="M513.43,149.662c-1.484,0-2.995-.439-4.32-1.279-.872-.553-2-1.508-2.425-2.918-.484-1.604,.128-3.567,1.522-4.886,1.123-1.062,2.715-1.774,4.73-2.118,.144-.025,.266,.069,.288,.205,.023,.136-.068,.265-.204,.289-1.917,.326-3.421,.995-4.471,1.988-1.261,1.191-1.818,2.951-1.388,4.378,.381,1.264,1.414,2.134,2.214,2.641,1.721,1.09,3.771,1.463,5.622,1.019,1.95-.467,3.591-1.854,4.282-3.62,.724-1.847,.342-4.02-.951-5.405-.944-1.011-2.374-1.646-4.025-1.789-1.649-.143-3.297,.21-4.55,.533-.139,.035-.27-.046-.305-.18-.034-.134,.046-.27,.18-.305,1.292-.333,2.994-.696,4.718-.547,1.775,.153,3.319,.844,4.348,1.946,1.422,1.523,1.844,3.906,1.051,5.929-.75,1.916-2.523,3.419-4.63,3.924-.551,.132-1.117,.196-1.687,.196Z" style="fill:#90CAF9;"></path><path d="M470.69,129.859c-1.483,0-2.994-.439-4.319-1.28-.872-.553-2-1.508-2.425-2.918-.483-1.604,.128-3.567,1.522-4.886,1.123-1.062,2.715-1.774,4.73-2.118,.142-.022,.265,.069,.288,.205,.023,.136-.068,.265-.204,.289-1.917,.326-3.421,.995-4.471,1.988-1.261,1.192-1.818,2.951-1.388,4.378,.381,1.264,1.414,2.134,2.214,2.641,1.723,1.091,3.774,1.461,5.622,1.019,1.95-.467,3.591-1.854,4.283-3.62,.723-1.848,.341-4.021-.952-5.405-.944-1.011-2.373-1.646-4.024-1.789-1.645-.144-3.298,.21-4.551,.534-.132,.034-.271-.046-.305-.18s.046-.27,.18-.305c1.291-.333,3-.696,4.719-.547,1.774,.153,3.318,.844,4.347,1.946,1.422,1.522,1.844,3.905,1.052,5.929-.751,1.916-2.525,3.419-4.631,3.924-.551,.132-1.117,.197-1.688,.197Z" style="fill:#90CAF9;"></path></g><rect x="458.774" y="103.479" width="4.401" height="15.436" transform="translate(279.531 -326.913) rotate(53.941)" style="fill:#263238;"></rect><rect x="525.152" y="195.837" width="4.401" height="15.436" transform="translate(381.499 -342.579) rotate(53.941)" style="fill:#263238;"></rect><rect x="547.087" y="222.172" width="4.401" height="15.436" transform="translate(-18.473 50.406) rotate(-5.167)" style="fill:#263238;"></rect><g><path d="M542.925,114.849c-.013,0-.026,0-.04-.003-.136-.022-.229-.15-.207-.287,.175-1.087,.944-2.063,1.961-2.486,1.014-.423,2.25-.283,3.146,.36,.269,.193,.502,.422,.727,.644,.216,.212,.419,.412,.647,.58,.413,.303,1.015,.49,1.433,.229,.304-.19,.451-.566,.606-.963,.172-.437,.349-.888,.755-1.176,.77-.547,1.608-.123,2.423,.287,.68,.342,1.32,.668,1.897,.455,.222-.081,.42-.243,.63-.414,.286-.233,.583-.475,.979-.546,.651-.118,1.173,.268,1.68,.638,.436,.319,.862,.624,1.278,.562,.307-.039,.574-.253,.856-.48,.296-.237,.602-.482,.996-.572,.845-.19,1.588,.424,2.184,.921l.092,.076c.535,.444,1.327,.819,1.799,.417,.105-.09,.264-.077,.352,.027,.09,.105,.078,.263-.027,.353-.707,.605-1.725,.184-2.443-.412l-.092-.077c-.562-.47-1.135-.957-1.752-.818-.282,.064-.531,.264-.794,.475-.325,.26-.66,.529-1.105,.586-.632,.081-1.146-.292-1.639-.655-.44-.323-.851-.627-1.296-.549-.269,.048-.503,.239-.751,.442-.233,.19-.474,.386-.774,.496-.772,.285-1.548-.103-2.294-.478-.743-.375-1.385-.698-1.909-.326-.284,.202-.427,.566-.578,.951-.179,.456-.363,.926-.807,1.205-.658,.412-1.483,.124-1.994-.25-.258-.189-.483-.412-.702-.627-.222-.218-.431-.424-.667-.594-.758-.544-1.802-.663-2.663-.304-.859,.358-1.511,1.184-1.658,2.104-.02,.123-.126,.21-.247,.21Z" style="fill:#263238;"></path><path d="M542.925,118.773c-.013,0-.026,0-.04-.003-.136-.022-.229-.15-.207-.287,.175-1.087,.944-2.062,1.961-2.486,1.014-.423,2.25-.282,3.146,.36,.27,.193,.503,.422,.729,.645,.214,.211,.417,.411,.646,.579,.413,.303,1.016,.492,1.433,.229,.304-.19,.451-.566,.606-.963,.172-.437,.349-.888,.755-1.176,.77-.547,1.61-.123,2.423,.286,.681,.343,1.322,.667,1.897,.456,.222-.081,.42-.243,.63-.414,.286-.233,.583-.475,.979-.546,.651-.118,1.173,.267,1.68,.638,.436,.319,.862,.625,1.278,.562,.307-.04,.574-.254,.856-.48,.296-.237,.602-.482,.996-.572,.851-.191,1.588,.423,2.182,.919l.094,.078c.534,.445,1.329,.823,1.798,.417,.107-.09,.265-.077,.353,.027,.09,.105,.078,.263-.026,.353-.71,.606-1.727,.185-2.444-.412l-.094-.078c-.562-.469-1.149-.957-1.75-.816-.282,.065-.531,.264-.794,.475-.325,.26-.66,.529-1.105,.586-.632,.078-1.146-.293-1.639-.655-.44-.323-.851-.627-1.296-.549-.269,.048-.503,.239-.751,.442-.233,.19-.474,.386-.774,.496-.777,.287-1.549-.103-2.294-.479-.743-.375-1.385-.698-1.909-.326-.284,.202-.427,.566-.578,.952-.179,.455-.363,.926-.807,1.205-.66,.414-1.485,.124-1.993-.25-.259-.189-.483-.411-.702-.626-.222-.218-.431-.424-.668-.595-.758-.544-1.802-.663-2.663-.304-.859,.358-1.511,1.184-1.658,2.103-.02,.123-.126,.21-.247,.21Z" style="fill:#263238;"></path></g><g><path d="M578.461,126.421c-.032,0-.064-.006-.096-.019-.127-.053-.188-.199-.136-.327,.781-1.888,.786-4.055,.014-5.945-.772-1.891-2.292-3.435-4.171-4.236-.127-.054-.187-.201-.132-.328,.054-.127,.204-.186,.327-.132,1.999,.853,3.617,2.495,4.438,4.507,.822,2.011,.816,4.316-.014,6.326-.04,.096-.134,.154-.231,.154Z" style="fill:#263238;"></path><path d="M578.312,126.598c-.017,0-.033-.001-.049-.005-.078-.016-.144-.067-.177-.138-.636-1.345-1.096-2.766-1.366-4.224-.024-.136,.064-.266,.2-.291,.139-.026,.267,.064,.292,.2,.242,1.306,.64,2.581,1.185,3.795,.846-.752,1.724-1.484,2.615-2.179,.106-.086,.265-.065,.351,.043,.085,.109,.065,.266-.044,.351-.971,.757-1.926,1.559-2.84,2.382-.046,.042-.105,.064-.167,.064Z" style="fill:#263238;"></path></g><g><rect x="464.982" y="201.615" width="32.534" height="32.534" style="fill:#90CAF9;"></rect><g><path d="M492.127,211.355h-21.588c-.138,0-.25-.112-.25-.25s.112-.25,.25-.25h21.588c.138,0,.25,.112,.25,.25s-.112,.25-.25,.25Z" style="fill:#263238;"></path><path d="M492.127,215.295h-21.588c-.138,0-.25-.112-.25-.25s.112-.25,.25-.25h21.588c.138,0,.25,.112,.25,.25s-.112,.25-.25,.25Z" style="fill:#263238;"></path><path d="M492.127,219.234h-21.588c-.138,0-.25-.112-.25-.25s.112-.25,.25-.25h21.588c.138,0,.25,.112,.25,.25s-.112,.25-.25,.25Z" style="fill:#263238;"></path><path d="M492.127,223.174h-21.588c-.138,0-.25-.112-.25-.25s.112-.25,.25-.25h21.588c.138,0,.25,.112,.25,.25s-.112,.25-.25,.25Z" style="fill:#263238;"></path></g></g><g><rect x="554.687" y="177.669" width="32.534" height="32.534" style="fill:#90CAF9;"></rect><rect x="554.687" y="177.669" width="32.534" height="32.534" style="fill:#fff; opacity:.7;"></rect><g><path d="M581.832,187.409h-21.589c-.138,0-.25-.112-.25-.25s.112-.25,.25-.25h21.589c.138,0,.25,.112,.25,.25s-.112,.25-.25,.25Z" style="fill:#263238;"></path><path d="M581.832,191.349h-21.589c-.138,0-.25-.112-.25-.25s.112-.25,.25-.25h21.589c.138,0,.25,.112,.25,.25s-.112,.25-.25,.25Z" style="fill:#263238;"></path><path d="M581.832,195.288h-21.589c-.138,0-.25-.112-.25-.25s.112-.25,.25-.25h21.589c.138,0,.25,.112,.25,.25s-.112,.25-.25,.25Z" style="fill:#263238;"></path><path d="M581.832,199.228h-21.589c-.138,0-.25-.112-.25-.25s.112-.25,.25-.25h21.589c.138,0,.25,.112,.25,.25s-.112,.25-.25,.25Z" style="fill:#263238;"></path></g></g><g><rect x="410.298" y="240.005" width="32.534" height="32.534" style="fill:#90CAF9;"></rect><rect x="410.298" y="240.005" width="32.534" height="32.534" style="fill:#fff; opacity:.7;"></rect><g><path d="M437.443,249.745h-21.588c-.138,0-.25-.112-.25-.25s.112-.25,.25-.25h21.588c.138,0,.25,.112,.25,.25s-.112,.25-.25,.25Z" style="fill:#263238;"></path><path d="M437.443,253.685h-21.588c-.138,0-.25-.112-.25-.25s.112-.25,.25-.25h21.588c.138,0,.25,.112,.25,.25s-.112,.25-.25,.25Z" style="fill:#263238;"></path><path d="M437.443,257.624h-21.588c-.138,0-.25-.112-.25-.25s.112-.25,.25-.25h21.588c.138,0,.25,.112,.25,.25s-.112,.25-.25,.25Z" style="fill:#263238;"></path><path d="M437.443,261.564h-21.588c-.138,0-.25-.112-.25-.25s.112-.25,.25-.25h21.588c.138,0,.25,.112,.25,.25s-.112,.25-.25,.25Z" style="fill:#263238;"></path></g></g><g><rect x="592.169" y="193.124" width="32.534" height="32.534" style="fill:#90CAF9;"></rect><rect x="592.169" y="193.124" width="32.534" height="32.534" style="fill:#fff; opacity:.7;"></rect><g><path d="M619.314,202.863h-21.589c-.138,0-.25-.112-.25-.25s.112-.25,.25-.25h21.589c.138,0,.25,.112,.25,.25s-.112,.25-.25,.25Z" style="fill:#263238;"></path><path d="M619.314,206.803h-21.589c-.138,0-.25-.112-.25-.25s.112-.25,.25-.25h21.589c.138,0,.25,.112,.25,.25s-.112,.25-.25,.25Z" style="fill:#263238;"></path><path d="M619.314,210.743h-21.589c-.138,0-.25-.112-.25-.25s.112-.25,.25-.25h21.589c.138,0,.25,.112,.25,.25s-.112,.25-.25,.25Z" style="fill:#263238;"></path><path d="M619.314,214.683h-21.589c-.138,0-.25-.112-.25-.25s.112-.25,.25-.25h21.589c.138,0,.25,.112,.25,.25s-.112,.25-.25,.25Z" style="fill:#263238;"></path></g></g><polygon points="360.342 80.837 369.505 89.678 631.357 89.678 639.046 80.837 360.342 80.837" style="fill:#fff; opacity:.3;"></polygon><polygon points="360.342 309.081 369.505 300.24 631.357 300.24 639.046 309.081 360.342 309.081" style="fill:#fff; opacity:.3;"></polygon><g><path d="M604.682,122.995c-.128,0-.236-.097-.249-.227l-.019-.201c-.247-2.628-.234-2.674,1.3-4.902l.149-.218c.438-.636,.988-1.21,1.521-1.766,.713-.744,1.386-1.446,1.817-2.286,.609-1.185,.556-2.626-.146-3.957-.846-1.604-2.476-2.738-4.252-2.961-1.812-.229-3.776,.485-5.116,1.865-1.062,1.095-1.559,2.444-1.362,3.702,.021,.136-.072,.264-.209,.286-.133,.024-.264-.072-.285-.208-.221-1.415,.325-2.919,1.498-4.127,1.446-1.489,3.566-2.259,5.537-2.013,1.936,.243,3.711,1.479,4.632,3.224,.779,1.477,.833,3.087,.149,4.418-.465,.905-1.195,1.667-1.902,2.403-.519,.541-1.055,1.101-1.47,1.703l-.15,.218q-1.445,2.1-1.213,4.572l.019,.201c.013,.138-.088,.259-.226,.272h-.023Z" style="fill:#263238;"></path><circle cx="605.164" cy="125.747" r=".805" style="fill:#263238;"></circle></g><path d="M604.562,129.656c-2.965,0-5.982-1.032-8.629-3.006-1.726-1.287-3.957-3.505-4.793-6.764-.945-3.69,.263-8.218,3.006-11.268,2.237-2.489,5.42-4.161,9.459-4.97,.14-.03,.268,.062,.294,.196,.027,.136-.061,.268-.196,.294-3.931,.787-7.021,2.407-9.186,4.813-2.636,2.931-3.798,7.274-2.893,10.81,.8,3.117,2.947,5.248,4.607,6.487,3.537,2.639,7.75,3.539,11.565,2.463,4.028-1.135,7.423-4.517,8.859-8.828,1.512-4.535,.712-9.868-1.988-13.271-1.956-2.465-4.907-4.013-8.311-4.358-3.366-.34-6.735,.504-9.293,1.279-.125,.04-.271-.034-.312-.167-.04-.132,.034-.272,.167-.312,2.601-.788,6.03-1.649,9.488-1.297,3.538,.359,6.61,1.973,8.652,4.545,2.801,3.53,3.633,9.052,2.07,13.74-1.488,4.465-5.013,7.972-9.199,9.151-1.1,.31-2.231,.462-3.37,.462Z" style="fill:#90CAF9;"></path><path d="M602.057,142.704c-.088,0-.174-.047-.219-.129-.066-.121-.022-.273,.098-.339,5.345-2.946,10.952-5.514,16.666-7.634,.127-.049,.273,.018,.321,.147s-.018,.273-.147,.321c-5.691,2.111-11.275,4.669-16.598,7.603-.039,.021-.08,.031-.121,.031Z" style="fill:#90CAF9;"></path><path d="M603.936,146.033c-.092,0-.181-.051-.225-.14-.061-.124-.01-.273,.114-.334,5.025-2.464,10.253-4.642,15.538-6.473,.131-.045,.272,.024,.318,.154,.045,.131-.024,.273-.154,.318-5.267,1.824-10.476,3.994-15.481,6.449-.036,.017-.073,.025-.11,.025Z" style="fill:#90CAF9;"></path><path d="M605.729,150.748c-.092,0-.181-.051-.225-.14-.061-.124-.01-.273,.114-.334,5.022-2.463,10.25-4.641,15.538-6.473,.13-.044,.272,.024,.318,.154,.045,.131-.024,.273-.154,.318-5.269,1.825-10.478,3.995-15.481,6.449-.036,.017-.073,.025-.11,.025Z" style="fill:#90CAF9;"></path><polygon points="360.342 80.837 369.505 89.678 369.505 300.24 360.342 309.081 360.342 80.837" style="fill:#fff; opacity:.2;"></polygon></g></g><g id="freepik--Speech_Bubble--inject-4"><g><g><path d="M288.194,88.892c-15.409-11.37-37.118-8.096-48.488,7.313-8.778,11.896-8.794,27.529-1.27,39.279l-2.801,10.03,10.94-1.185c.153,.117,.289,.249,.445,.364,15.409,11.37,37.118,8.096,48.488-7.313,11.37-15.409,8.096-37.118-7.313-48.488Z" style="fill:#90CAF9;"></path><path d="M288.194,88.892c-15.409-11.37-37.118-8.096-48.488,7.313-8.778,11.896-8.794,27.529-1.27,39.279l-2.801,10.03,10.94-1.185c.153,.117,.289,.249,.445,.364,15.409,11.37,37.118,8.096,48.488-7.313,11.37-15.409,8.096-37.118-7.313-48.488Z" style="fill:#fff; opacity:.7;"></path><path d="M306.653,115.78h-.007c-.138-.004-.247-.119-.243-.257,.33-11.142-5.411-22.394-14.625-28.667-.114-.078-.144-.233-.066-.347,.078-.115,.234-.143,.347-.066,9.351,6.367,15.177,17.787,14.843,29.095-.004,.136-.115,.243-.25,.243Z" style="fill:#90CAF9;"></path><path d="M305.493,125.998c-.03,0-.061-.005-.09-.017-.129-.05-.193-.194-.144-.323,.604-1.566,.883-3.279,.808-4.954-.006-.138,.101-.255,.238-.261,.155-.018,.255,.101,.261,.238,.078,1.744-.212,3.527-.84,5.156-.039,.099-.133,.16-.233,.16Z" style="fill:#90CAF9;"></path></g><path d="M265.356,118.495c.584-.992,1.435-2.086,2.552-3.283,.82-.876,1.422-1.613,1.806-2.211,.386-.598,.578-1.276,.578-2.036,0-1.079-.366-1.932-1.099-2.56s-1.708-.941-2.924-.941c-1.168,0-2.205,.285-3.111,.854-.907,.568-1.67,1.364-2.291,2.385l-4.508-3.107c1.044-1.868,2.452-3.313,4.229-4.334,1.775-1.022,3.881-1.532,6.315-1.532,2.857,0,5.148,.716,6.874,2.145,1.726,1.43,2.589,3.414,2.589,5.954,0,1.197-.168,2.247-.503,3.151-.335,.905-.745,1.671-1.229,2.298-.483,.628-1.111,1.35-1.881,2.168-.919,.963-1.589,1.773-2.012,2.429-.422,.656-.634,1.452-.634,2.386h-5.625c0-1.518,.291-2.772,.875-3.765Zm-.595,13.268c-.684-.692-1.025-1.534-1.025-2.528s.335-1.822,1.006-2.488c.671-.665,1.528-.999,2.571-.999s1.9,.334,2.571,.999c.671,.667,1.006,1.496,1.006,2.488s-.341,1.836-1.024,2.528c-.684,.692-1.534,1.038-2.553,1.038s-1.869-.346-2.551-1.038Z" style="fill:#90CAF9;"></path></g></g><g id="freepik--Character--inject-4"><g><path d="M205.867,243l-17.202-3.306-28.284,.352c-1.822,.475-19.19,4.927-19.19,4.927l-27.747,202.801H242.14l-6.815-70.088c-3.192-70.843-11.107-109.261-18.028-125.517-2.024-4.755-6.309-8.185-11.43-9.169Z" style="fill:#90CAF9;"></path><g><path d="M160.398,246.908s2.213-15.872-7.08-43.386c0-.03,1.439-.745,1.439-.775-1.283-3.849-2.625-7.398-3.878-10.471-.029-.09-.029-.12-.029-.12l39.142,21.898c-.507,8.95,3.441,26.029,5.665,33.218,0,0,5.385,12.96-12.107,14.298-12.782,.978-23.151-14.662-23.151-14.662Z" style="fill:#ffbfb8;"></path><path d="M191.217,226.554l-22.153-3.99c2.288,6.736,8.677,14.559,23.972,14.555,0,0-1.855-7.569-1.819-10.564Z" style="opacity:.2;"></path><path d="M146.301,173.652c3.622,24.053,5.18,37.692,18.505,48.911,20.044,16.877,48.292,3.494,51.938-21.229,3.281-22.253-3.193-57.849-27.744-65.151-24.188-7.194-46.321,13.416-42.699,37.47Z" style="fill:#ffbfb8;"></path><path d="M207.901,118.63c-8.399-1.52-11.231,3.032-11.231,3.032-5.819,3.542-13.232,1.695-20.038,2.049-9.801,.633-18.69,5.969-23.858,14.32-6.974-.153-13.289,4.103-15.762,10.626-2.434,6.34-3.108,13.22-1.948,19.911,2.741,15.113,12.593,37.378,23.067,48.612l-11.303-36.923c5.079-.383,9.861,2.432,11.992,7.059v-15.534c.658-.759,5.563-5.284,2.574-18.096,0,0,23.104,9.498,48.31-2.637,21.35-15.691,7.831-30.675-1.804-32.419Z" style="fill:#263238;"></path><path d="M183.275,181.036c.218,2.475,1.708,4.352,3.327,4.193,1.619-.159,2.754-2.294,2.535-4.769-.218-2.475-1.708-4.352-3.326-4.193-1.619,.159-2.754,2.294-2.536,4.769Z" style="fill:#263238;"></path><path d="M206.343,179.171c.218,2.475,1.708,4.352,3.326,4.193,1.619-.159,2.754-2.294,2.536-4.77-.218-2.475-1.708-4.352-3.326-4.193-1.619,.159-2.754,2.294-2.535,4.769Z" style="fill:#263238;"></path><path d="M195.51,175.953s8.921,11.605,11.874,16.39c-3.17,3.416-9.23,2.506-9.23,2.506l-2.644-18.896Z" style="fill:#fa7c76;"></path><path d="M175.583,171.047c.387,.119,.828,.033,1.148-.266,3.809-3.552,7.985-2.602,8.028-2.592,.624,.149,1.257-.234,1.413-.855,.155-.622-.228-1.248-.848-1.399-.22-.054-5.454-1.246-10.179,3.162-.472,.44-.499,1.174-.061,1.639,.142,.151,.314,.255,.499,.311Z" style="fill:#263238;"></path><path d="M214.652,159.523c.181-.127,.328-.307,.415-.53,.235-.6-.055-1.279-.649-1.515-5.959-2.371-10.316,.728-10.529,.842-.521,.375-.645,1.104-.276,1.629,.368,.524,1.084,.648,1.605,.281,.176-.136,3.563-2.481,8.346-.578,.375,.15,.781,.087,1.088-.129Z" style="fill:#263238;"></path><path d="M190.345,206.816c-.131,0-.262-.051-.36-.153-2.198-2.282-6.188-3.477-8.993-3.477-.276,0-.5-.224-.5-.5s.224-.5,.5-.5c3.017,0,7.322,1.299,9.714,3.783,.191,.199,.186,.515-.014,.707-.097,.093-.222,.14-.347,.14Z" style="fill:#263238;"></path><path d="M138.531,194.656c2.483,6.056,7.542,10.372,12.55,12.331,7.534,2.948,9.528-5.181,8.17-12.74-1.222-6.804-3.961-14.981-11.877-14.697-7.799,.28-11.683,8.183-8.844,15.107Z" style="fill:#ffbfb8;"></path><path d="M155.146,194.25c-.233,0-.441-.163-.489-.4-.403-1.979-1.322-3.827-2.658-5.344-.868-.986-2.284-2.22-4.096-2.5-1.631-.25-3.312,.472-4.001,1.718-.134,.242-.439,.329-.68,.195-.242-.134-.329-.438-.195-.68,.9-1.625,2.966-2.539,5.029-2.222,2.108,.326,3.717,1.718,4.694,2.828,1.451,1.648,2.45,3.656,2.887,5.806,.055,.271-.119,.535-.39,.589-.034,.007-.067,.01-.1,.01Z" style="opacity:.2;"></path><path d="M144.894,179.542c.642-1.308,26.517-7.082,26.517-7.082l.855,5.988-21.417,1.609-5.955-.514Z" style="fill:#90CAF9;"></path><path d="M171.411,172.46l45.048-5.962s4.939,16.668-1.335,20.821c-2.491,1.649-10.869,2.284-15.165-5.476,0,0-2.203-2.375-2.508,2.189-.312,4.657-6.218,9.666-13.255,8.123-7.037-1.543-11.074-7.721-11.929-13.708l-.855-5.988Z" style="fill:#90CAF9; opacity:.3;"></path></g><g><path d="M170.042,332.326c-2.53-80.101-11.001-97.692-11.001-97.692l-9.803,8.311s-35.157,7.061-43.307,13.479c-11.79,9.285,6.603,102.087,3.39,135.787-2.783,29.273-4.024,25.574-8.249,56.314l64.784-.752s6.716-35.348,4.186-115.449Z" style="fill:#90CAF9;"></path><path d="M170.042,332.326c-2.53-80.101-11.001-97.692-11.001-97.692l-9.803,8.311s-35.157,7.061-43.307,13.479c-11.79,9.285,6.603,102.087,3.39,135.787-2.783,29.273-4.024,25.574-8.249,56.314l64.784-.752s6.716-35.348,4.186-115.449Z" style="fill:#fff; opacity:.8;"></path><path d="M183.211,404.822s3.98,2.438,8.703,6.865c4.565,4.279-4.746,11.084-9.587,11.422,0,0-3.118,5.812-9.031,4.526l-3.617-1.303s1.056,6.884-8.157,5.782c-9.212-1.102-17.953-8.43-22.948-14.256-4.994-5.827,6.911-25.093,8.189-25.451l8.099,4.003c12.778-2.961,33.541,6.293,33.916,7.018l-5.567,1.395Z" style="fill:#263238;"></path><path d="M99.489,363.342c.632-6.958,18.167-46.205,26.607-71.445,8.276-24.75,12.619-47.486-9.595-39.896,0,0-16.39,2.685-27.522,22.926-9.968,18.09-43.483,90.266-25.14,109.241,13.169,13.234,67.129,36.688,76.617,37.675l12.769-30.103c-9.842-3.188-53.737-28.397-53.737-28.397Z" style="fill:#90CAF9;"></path><path d="M99.489,363.342c.632-6.958,18.167-46.205,26.607-71.445,8.276-24.75,12.619-47.486-9.595-39.896,0,0-16.39,2.685-27.522,22.926-9.968,18.09-43.483,90.266-25.14,109.241,13.169,13.234,67.129,36.688,76.617,37.675l12.769-30.103c-9.842-3.188-53.737-28.397-53.737-28.397Z" style="fill:#fff; opacity:.8;"></path><path d="M149.239,242.945s-11.719,32.431-8.852,34.438c2.868,2.007,9.506,8.603,9.506,8.603,0,0-7.829,3.154-9.958,7.169-2.129,4.015,30.677,89.966,30.677,89.966,0,0,2.03-67.943-2.461-100.993-4.067-29.93-4.118-32.692-9.11-47.494l-9.803,8.311Z" style="fill:#90CAF9; opacity:.3;"></path><path d="M109.565,258.188c8.736,.968,16.366,7.45,18.757,15.909,.383,1.172,.627,2.38,.864,3.58-.456-1.143-.791-2.312-1.324-3.41-3.079-8.01-10.059-13.867-18.298-16.079h0Z" style="fill:#263238;"></path></g><g><g><path d="M345.86,248.071c-1.32,7.563-8.521,12.625-16.084,11.305-7.563-1.32-12.625-8.521-11.305-16.084,1.32-7.563,8.521-12.625,16.084-11.305s12.625,8.521,11.305,16.084Z" style="fill:#90CAF9;"></path><path d="M345.86,248.071c-1.32,7.563-8.521,12.625-16.084,11.305-7.563-1.32-12.625-8.521-11.305-16.084,1.32-7.563,8.521-12.625,16.084-11.305s12.625,8.521,11.305,16.084Z" style="fill:#fff; opacity:.8;"></path><circle cx="332.166" cy="245.682" r="8.82" transform="translate(-74.616 317.947) rotate(-46.562)" style="fill:#90CAF9;"></circle><circle cx="332.166" cy="245.682" r="5.637" style="opacity:.2;"></circle><g><path d="M348.177,295.226s3.136-11.744-1.146-16.774c-4.282-5.031-14.223-14.764-16.899-11.101-2.676,3.663,1.582,5.624,1.582,5.624,0,0-8.571-2.969-10.088,.185s4.791,6.189,4.791,6.189l2.776,2.859s-7.812-2.997-9.618,1.39c-1.806,4.387,3.957,5.864,3.957,5.864,0,0-5.713-.652-2.94,5.308,2.774,5.96,7.835,6.511,7.835,6.511,0,0,18.71,4.312,19.75-6.056Z" style="fill:#263238;"></path><path d="M300.589,310.871s6.933-14.392,13.474-21.526c6.54-7.133,13.991-5.323,13.991-5.323l20.747,8.16s-6.603,17.325-11.136,20.123-15.55,1.001-15.55,1.001l-4.332,11.854-17.193-14.289Z" style="fill:#263238;"></path></g><path d="M326.358,291.992c-.917-1.058,4.111-43.602,4.111-43.602l1.697,.296-1.645,44.032-4.163-.726Z" style="fill:#263238;"></path></g><path d="M207.828,243.559c1.144-.008,22.346,3.962,33.846,20.925,6.665,9.831,33.214,66.16,34.91,65.823l25.278-30.676,26.274,15.597s-44.337,69.817-57.712,69.03c-13.375-.787-36.978-44.061-36.978-44.061l-25.619-96.638Z" style="fill:#90CAF9;"></path><path d="M207.828,243.559c1.144-.008,22.346,3.962,33.846,20.925,6.665,9.831,33.214,66.16,34.91,65.823l25.278-30.676,26.274,15.597s-44.337,69.817-57.712,69.03c-13.375-.787-36.978-44.061-36.978-44.061l-25.619-96.638Z" style="fill:#fff; opacity:.8;"></path><path d="M193.855,240.691l-1.202-5.293,10.559,6.075,18.765,6.701c8.784,5.124,27.375,201.283,25.558,199.6-.241-.223-17.978,0-18.92,0s-14.107-132.325-18.5-161.194c-4.393-28.869-16.26-45.889-16.26-45.889Z" style="fill:#90CAF9;"></path><path d="M193.842,240.497l-1.189-5.099,10.559,6.075,18.765,6.701c8.784,5.124,27.375,201.283,25.558,199.6-.241-.223-17.978,0-18.92,0s-14.107-132.325-18.5-161.194c-4.393-28.869-16.273-46.083-16.273-46.083Z" style="fill:#fff; opacity:.8;"></path><path d="M216.503,377.456s8.525-78.703,6.356-91.397c-2.077-12.154-11.626-12.821-11.626-12.821,0,0,4.543-11.68,3.305-13.717-4.432-7.298-11.326-18.048-11.326-18.048l-10.559-6.075,1.202,5.293c4.092,6.679,10.876,20.829,13.095,31.155,3.166,14.734,4.883,28.903,6.13,48.279s3.423,57.331,3.423,57.331Z" style="fill:#90CAF9; opacity:.3;"></path><path d="M238.829,355.527l-8.379-66.936s16.544,33.318,8.379,66.936Z" style="isolation:isolate; opacity:.2;"></path><path d="M276.585,330.306s-.551,23.574,0,23,5.526-17.681,4.091-27.964l-4.091,4.964Z" style="isolation:isolate; opacity:.2;"></path></g></g></g><g id="freepik--Microscope--inject-4"><g><path d="M249.11,355.369l6.247,9.435-5.677,3.897-7.551-9.307s2.897-5.061,6.981-4.025Z" style="fill:#263238;"></path><path d="M252.705,342.316l14.461,5.038-1.78,6.608-13.891-3.037s-2.28-5.154,1.21-8.609Z" style="fill:#263238;"></path><polygon points="247.505 346.074 245.69 351.891 238.883 357.114 230.961 357.708 209.926 329.692 208.216 327.4 209.949 322.165 193.673 300.118 203.515 292.719 219.361 315.347 225.271 315.859 226.679 317.767 247.505 346.074" style="fill:#263238;"></polygon><polygon points="247.505 346.074 245.69 351.891 238.883 357.114 230.961 357.708 209.926 329.692 208.216 327.4 209.949 322.165 193.673 300.118 203.515 292.719 219.361 315.347 225.271 315.859 226.679 317.767 247.505 346.074" style="fill:#fff; isolation:isolate; opacity:.5;"></polygon><polygon points="226.679 317.767 209.926 329.692 208.216 327.4 209.949 322.165 193.673 300.118 203.515 292.719 219.361 315.347 225.271 315.859 226.679 317.767" style="fill:#263238;"></polygon><polygon points="244.666 356.614 250.215 355.73 252.903 351.844 250.623 343.723 244.666 356.614" style="fill:#263238;"></polygon><polygon points="244.666 356.614 250.215 355.73 252.903 351.844 250.623 343.723 244.666 356.614" style="fill:#fff; isolation:isolate; opacity:.1;"></polygon><polygon points="237.476 358.639 249.866 337.499 254.811 340.454 242.304 362.315 237.476 358.639" style="fill:#263238;"></polygon><polygon points="237.476 358.639 249.866 337.499 254.811 340.454 242.304 362.315 237.476 358.639" style="fill:#fff; isolation:isolate; opacity:.2;"></polygon><polygon points="251.588 424.337 282.303 406.711 284.06 409.992 254.124 427.339 251.588 424.337" style="fill:#263238;"></polygon><polygon points="251.588 424.337 282.303 406.711 284.06 409.992 254.124 427.339 251.588 424.337" style="fill:#fff; isolation:isolate; opacity:.1;"></polygon><polygon points="266.748 381.418 269.807 386.991 255.078 395.077 251.146 389.656 266.748 381.418" style="fill:#263238;"></polygon><polygon points="266.748 381.418 269.807 386.991 255.078 395.077 251.146 389.656 266.748 381.418" style="fill:#fff; isolation:isolate; opacity:.05;"></polygon><polygon points="231.461 393.03 235.987 400.673 286.526 372.681 281.232 365.072 231.461 393.03" style="fill:#263238;"></polygon><polygon points="251.995 395.519 270.68 385.258 273.065 389.574 254.788 399.778 251.995 395.519" style="fill:#263238;"></polygon><polygon points="231.461 393.03 235.987 400.673 286.526 372.681 281.232 365.072 231.461 393.03" style="fill:#fff; isolation:isolate; opacity:.2;"></polygon><polygon points="251.995 395.519 270.68 385.258 273.065 389.574 254.788 399.778 251.995 395.519" style="fill:#fff; isolation:isolate; opacity:.1;"></polygon><path d="M203.283,346.993l16.381-7.783,15.66,29.388-14.38,8.342-.465-.244c-2.524-1.357-5.571-1.308-8.051,.128l-2.711,1.571c-1.722,.994-2.539,3.037-1.978,4.945h0c2.858,9.638,8.579,18.179,16.404,24.49h0c1.193,.976,2.872,1.093,4.188,.291l4.037-2.676c1.88-1.27,3.025-3.374,3.071-5.643h0l21.791-11.937,1.547,2.827-10.413,5.899v13.019l9.098,18.44-9.051,5.166s-34.321-6.248-46.933-32.308c-12.612-26.061,1.803-53.913,1.803-53.913Z" style="fill:#263238;"></path><path d="M203.283,346.993l16.381-7.783,15.66,29.388-14.38,8.342-.465-.244c-2.524-1.357-5.571-1.308-8.051,.128l-2.711,1.571c-1.722,.994-2.539,3.037-1.978,4.945h0c2.858,9.638,8.579,18.179,16.404,24.49h0c1.193,.976,2.872,1.093,4.188,.291l4.037-2.676c1.88-1.27,3.025-3.374,3.071-5.643h0l21.791-11.937,1.547,2.827-10.413,5.899v13.019l9.098,18.44-9.051,5.166s-34.321-6.248-46.933-32.308c-12.612-26.061,1.803-53.913,1.803-53.913Z" style="fill:#fff; isolation:isolate; opacity:.7;"></path><polygon points="225.987 374.014 197.782 363.537 197.386 365.59 223.568 375.417 225.987 374.014" style="fill:#fff; isolation:isolate; opacity:.2;"></polygon><path d="M235.323,368.597l-34.9-14.636c-.86,2.367-1.566,4.809-2.137,7.318l29.256,11.832,7.781-4.514Z" style="fill:#fff; isolation:isolate; opacity:.2;"></path><path d="M227.831,365.348c.383,2.646-1.451,5.1-4.096,5.484-2.645,.383-5.1-1.451-5.483-4.096-.383-2.642,1.447-5.095,4.088-5.482,2.646-.381,5.102,1.45,5.491,4.095Z" style="fill:#263238;"></path><polygon points="263.746 415.67 267.353 421.092 285.607 410.737 282.268 405.432 263.746 415.67" style="fill:#263238;"></polygon><path d="M228.866,345.026c.666,4.52-2.457,8.724-6.977,9.39-4.52,.666-8.724-2.457-9.39-6.977-.666-4.52,2.457-8.724,6.977-9.39l.024-.004c4.512-.651,8.701,2.47,9.366,6.981Z" style="fill:#263238;"></path><polygon points="263.746 415.67 267.353 421.092 285.607 410.737 282.268 405.432 263.746 415.67" style="fill:#fff; isolation:isolate; opacity:.2;"></polygon><path d="M224.771,345.643c.332,2.257-1.229,4.355-3.486,4.687-2.257,.332-4.355-1.229-4.687-3.486s1.229-4.355,3.486-4.687l.033-.005c2.245-.305,4.318,1.25,4.654,3.49Z" style="fill:#fff; isolation:isolate; opacity:.5;"></path><path d="M192.427,438.985h97.981c0-2.898-4.631-5.247-10.345-5.247h-82.389c-2.898,0-5.247,2.349-5.247,5.247h0Z" style="fill:#263238;"></path><path d="M216.22,438.997l13.891-24.164c1.527-2.653,4.412-4.226,7.469-4.072h0c4.202,.219,7.545,3.603,7.714,7.807l.814,20.407-29.888,.023Z" style="fill:#263238;"></path><path d="M216.22,438.997l13.891-24.164c1.527-2.653,4.412-4.226,7.469-4.072h0c4.202,.219,7.545,3.603,7.714,7.807l.814,20.407-29.888,.023Z" style="fill:#fff; isolation:isolate; opacity:.5;"></path><path d="M241.583,419.684c0,2.679-2.172,4.851-4.851,4.851-2.679,0-4.851-2.172-4.851-4.852,0-2.679,2.172-4.851,4.852-4.851h.011c2.675,.006,4.84,2.177,4.84,4.852Z" style="fill:#263238;"></path><rect x="246.394" y="369.753" width="32.972" height="5.363" transform="translate(-147.461 173.856) rotate(-28.96)" style="fill:#90CAF9;"></rect></g></g><g id="freepik--Table--inject-4"><g><g><rect x="54.485" y="439.19" width="659.434" height="10.69" style="fill:#90CAF9;"></rect><rect x="54.485" y="439.19" width="659.434" height="10.69" style="opacity:.4;"></rect></g><rect x="54.485" y="439.19" width="97.004" height="10.69" style="opacity:.4;"></rect></g></g></svg>
