<svg xmlns="http://www.w3.org/2000/svg" viewBox="0 0 500 500"><g id="freepik--background-simple--inject-75"><path d="M162.81,169.76c-45.14,26-101.84,23.86-103.87,92.38-1.41,47.64,34.54,74.48,74.41,91.51,38.11,16.29,82.09,33.89,119.91,11.74,25.62-15,34.74-36.86,67.53-40.89,20.72-2.55,36.51,10,57.95-.76,92.54-46.42,40.75-163.68-18.12-208.35C327.07,89.93,264.85,61.24,221.14,75.1,170.17,91.27,203.15,146.49,162.81,169.76Z" style="fill:#2563EB"></path><path d="M162.81,169.76c-45.14,26-101.84,23.86-103.87,92.38-1.41,47.64,34.54,74.48,74.41,91.51,38.11,16.29,82.09,33.89,119.91,11.74,25.62-15,34.74-36.86,67.53-40.89,20.72-2.55,36.51,10,57.95-.76,92.54-46.42,40.75-163.68-18.12-208.35C327.07,89.93,264.85,61.24,221.14,75.1,170.17,91.27,203.15,146.49,162.81,169.76Z" style="fill:#fff;opacity:0.9"></path></g><g id="freepik--Shadow--inject-75"><ellipse cx="250" cy="416.24" rx="193.89" ry="11.32" style="fill:#f5f5f5"></ellipse></g><g id="freepik--speech-bubble--inject-75"><path d="M391.49,164.29H308.23A12.23,12.23,0,0,0,296,176.48v45.06a12.23,12.23,0,0,0,12.2,12.19h8.43L313.38,247a35.21,35.21,0,0,0,24.44-13.25h53.67a12.23,12.23,0,0,0,12.2-12.19V176.48A12.23,12.23,0,0,0,391.49,164.29Z" style="fill:#2563EB"></path><path d="M391.49,164.29H308.23A12.23,12.23,0,0,0,296,176.48v45.06a12.23,12.23,0,0,0,12.2,12.19h8.43L313.38,247a35.21,35.21,0,0,0,24.44-13.25h53.67a12.23,12.23,0,0,0,12.2-12.19V176.48A12.23,12.23,0,0,0,391.49,164.29Z" style="opacity:0.30000000000000004"></path><circle cx="381.68" cy="199.01" r="10.3" style="fill:#2563EB"></circle><circle cx="349.86" cy="199.01" r="10.3" style="fill:#2563EB"></circle><circle cx="318.05" cy="199.01" r="10.3" style="fill:#2563EB"></circle><g style="opacity:0.1"><circle cx="381.68" cy="199.01" r="10.3" style="fill:#fafafa"></circle><circle cx="349.86" cy="199.01" r="10.3" style="fill:#fafafa"></circle><circle cx="318.05" cy="199.01" r="10.3" style="fill:#fafafa"></circle></g><path d="M187.33,99.59H270.6a12.24,12.24,0,0,1,12.2,12.2v45.05A12.24,12.24,0,0,1,270.6,169h-8.43l3.28,13.24A35.23,35.23,0,0,1,241,169H187.33a12.23,12.23,0,0,1-12.19-12.2v-45A12.23,12.23,0,0,1,187.33,99.59Z" style="fill:#2563EB"></path><path d="M187.33,99.59H270.6a12.24,12.24,0,0,1,12.2,12.2v45.05A12.24,12.24,0,0,1,270.6,169h-8.43l3.28,13.24A35.23,35.23,0,0,1,241,169H187.33a12.23,12.23,0,0,1-12.19-12.2v-45A12.23,12.23,0,0,1,187.33,99.59Z" style="fill:#fafafa;opacity:0.1"></path><rect x="189.88" y="115.28" width="78.17" height="7.4" style="fill:#2563EB"></rect><rect x="189.88" y="130.61" width="60.29" height="7.4" style="fill:#2563EB"></rect><rect x="189.88" y="145.95" width="68.16" height="7.4" style="fill:#2563EB"></rect><g style="opacity:0.30000000000000004"><rect x="189.88" y="115.28" width="78.17" height="7.4"></rect><rect x="189.88" y="130.61" width="60.29" height="7.4"></rect><rect x="189.88" y="145.95" width="68.16" height="7.4"></rect></g></g><g id="freepik--Character--inject-75"><path d="M298.05,311.31h0c-.55,0-1.11,0-1.68.05-11.88.85-21.49,10.91-22.25,23.29a26.28,26.28,0,0,0,.77,8.13,129.93,129.93,0,0,1,3.76,32.55v32a4.12,4.12,0,0,0,4,4.2H362V311.31Z" style="fill:#2563EB"></path><path d="M298.05,311.31h0c-.55,0-1.11,0-1.68.05-11.88.85-21.49,10.91-22.25,23.29a26.28,26.28,0,0,0,.77,8.13,129.93,129.93,0,0,1,3.76,32.55v32a4.12,4.12,0,0,0,4,4.2H362V311.31Z" style="opacity:0.30000000000000004"></path><path d="M386,336.29c0-14.37-11.65-25.92-25.66-24.92-11.88.85-21.49,10.91-22.25,23.29a26.28,26.28,0,0,0,.77,8.13,129.93,129.93,0,0,1,3.76,32.55v32a4.12,4.12,0,0,0,4,4.2h30.75a4.11,4.11,0,0,0,4-4.2V373.46A118.44,118.44,0,0,1,385.15,343,26.19,26.19,0,0,0,386,336.29Z" style="fill:#2563EB"></path><rect x="227.82" y="350.66" width="101.16" height="60.82" style="fill:#2563EB"></rect><rect x="227.82" y="350.66" width="101.16" height="60.82" style="opacity:0.30000000000000004"></rect><path d="M174.12,277.81h111.7a18.52,18.52,0,0,1,18.52,18.52v68.08a0,0,0,0,1,0,0H155.59a0,0,0,0,1,0,0V296.33A18.52,18.52,0,0,1,174.12,277.81Z" style="fill:#2563EB"></path><path d="M174.12,277.81h111.7a18.52,18.52,0,0,1,18.52,18.52v68.08a0,0,0,0,1,0,0H155.59a0,0,0,0,1,0,0V296.33A18.52,18.52,0,0,1,174.12,277.81Z" style="opacity:0.4"></path><path d="M196.08,277.81h95.48a17.63,17.63,0,0,1,17.63,17.63v69a0,0,0,0,1,0,0H178.45a0,0,0,0,1,0,0v-69A17.63,17.63,0,0,1,196.08,277.81Z" style="fill:#2563EB"></path><path d="M233.6,344.33h94.07a5.46,5.46,0,0,1,5.46,5.46v14.63a5.46,5.46,0,0,1-5.46,5.46H233.6a1.63,1.63,0,0,1-1.63-1.63V346A1.63,1.63,0,0,1,233.6,344.33Z" style="fill:#2563EB"></path><path d="M233.6,344.33h94.07a5.46,5.46,0,0,1,5.46,5.46v14.63a5.46,5.46,0,0,1-5.46,5.46H233.6a1.63,1.63,0,0,1-1.63-1.63V346A1.63,1.63,0,0,1,233.6,344.33Z" style="opacity:0.4"></path><path d="M145.77,411.49H363.24a0,0,0,0,1,0,0v.06a3,3,0,0,1-3,3H148.75a3,3,0,0,1-3-3v-.06A0,0,0,0,1,145.77,411.49Z" style="fill:#2563EB"></path><path d="M145.77,411.49H363.24a0,0,0,0,1,0,0v.06a3,3,0,0,1-3,3H148.75a3,3,0,0,1-3-3v-.06A0,0,0,0,1,145.77,411.49Z" style="opacity:0.4"></path><path d="M275.72,267.74l.4,1.63.46,1.77c.32,1.18.66,2.37,1,3.55.71,2.38,1.48,4.76,2.28,7.13s1.63,4.75,2.53,7.1c.45,1.18.89,2.36,1.35,3.53l.55,1.41a2.72,2.72,0,0,0,.43.67,12.38,12.38,0,0,0,4.75,3,46.2,46.2,0,0,0,6.77,2.1c2.38.55,4.83,1,7.31,1.39s5,.7,7.46,1l.09,5.05A77.45,77.45,0,0,1,295,307a46.15,46.15,0,0,1-8.28-1.61,27.36,27.36,0,0,1-4.26-1.67,16.48,16.48,0,0,1-4.28-3,11.9,11.9,0,0,1-1.88-2.42c-.14-.23-.26-.48-.39-.73l-.24-.5-.44-.89c-.58-1.19-1.16-2.39-1.7-3.6-1.09-2.42-2.14-4.85-3.09-7.34s-1.86-5-2.67-7.57c-.39-1.29-.76-2.58-1.11-3.9l-.51-2c-.16-.7-.29-1.3-.45-2.14Z" style="fill:#b55b52"></path><path d="M272.53,257.11c4,1,6.84,17.59,6.84,17.59l-11.09,7.54s-10.64-16.71-7.54-21.13C264,256.5,266.65,255.62,272.53,257.11Z" style="fill:#2563EB"></path><path d="M272.53,257.11c4,1,6.84,17.59,6.84,17.59l-11.09,7.54s-10.64-16.71-7.54-21.13C264,256.5,266.65,255.62,272.53,257.11Z" style="fill:#fafafa;opacity:0.5"></path><path d="M272.89,263.13l-8.61,2-.83,8.42a97.38,97.38,0,0,0,4.83,8.69l6.72-4.57C274.72,273.8,274,265.75,272.89,263.13Z" style="fill:#2563EB"></path><path d="M272.89,263.13l-8.61,2-.83,8.42a97.38,97.38,0,0,0,4.83,8.69l6.72-4.57C274.72,273.8,274,265.75,272.89,263.13Z" style="fill:#fafafa;opacity:0.30000000000000004"></path><path d="M309.59,301.93l6.93-7,.91,9.89s-5.2,3.51-8.79,1.62Z" style="fill:#b55b52"></path><polygon points="324.66 293.86 324.97 302.18 317.43 304.8 316.52 294.91 324.66 293.86" style="fill:#b55b52"></polygon><path d="M272.53,257.11s4.65,1.64-4.67,58.94H228.2c.67-16.14.69-26.1-7-59.22A116.77,116.77,0,0,1,238,254.61a125.74,125.74,0,0,1,18,0C263.76,255.32,272.53,257.11,272.53,257.11Z" style="fill:#2563EB"></path><path d="M272.53,257.11s4.65,1.64-4.67,58.94H228.2c.67-16.14.69-26.1-7-59.22A116.77,116.77,0,0,1,238,254.61a125.74,125.74,0,0,1,18,0C263.76,255.32,272.53,257.11,272.53,257.11Z" style="fill:#fafafa;opacity:0.5"></path><path d="M260.62,255.13c-1.52-.2-3.08-.38-4.6-.52a125.74,125.74,0,0,0-18,0c-1.39.07-2.77.17-4.1.3l.29.91c.16.51,4.13,12.59,18.44,19l2.74,1.23,1.94-2.3A18.15,18.15,0,0,0,260.62,255.13Z" style="fill:#2563EB"></path><path d="M260.62,255.13c-1.52-.2-3.08-.38-4.6-.52a125.74,125.74,0,0,0-18,0c-1.39.07-2.77.17-4.1.3l.29.91c.16.51,4.13,12.59,18.44,19l2.74,1.23,1.94-2.3A18.15,18.15,0,0,0,260.62,255.13Z" style="opacity:0.30000000000000004"></path><path d="M230.5,272.21l-5.12,4.35c1.1,5.8,1.83,10.63,2.3,14.92C228.64,287.17,231.07,275.5,230.5,272.21Z" style="fill:#2563EB"></path><path d="M230.5,272.21l-5.12,4.35c1.1,5.8,1.83,10.63,2.3,14.92C228.64,287.17,231.07,275.5,230.5,272.21Z" style="fill:#fafafa;opacity:0.30000000000000004"></path><path d="M245.2,205c-10.5-3.29-16.35,8-15.34,22.12.73,10.12-1.31,14.53-7.36,14.23C225.33,248,261,258,271.32,246.11c-2.9-1.57-4.35-8.56-2.23-14.82C273.89,217.17,269.44,195.85,245.2,205Z" style="fill:#263238"></path><path d="M239.8,234.33c1.13,5.8,2.27,16.41-1.79,20.28,0,0,3.43,10.81,16.26,16.56A14.65,14.65,0,0,0,256,254.61c-6.46-1.54-6.29-6.34-5.17-10.84Z" style="fill:#b55b52"></path><path d="M244.3,238.18l6.55,5.59a18.89,18.89,0,0,0-.56,3.19c-2.47-.35-5.86-3.06-6.12-5.65A8.72,8.72,0,0,1,244.3,238.18Z" style="fill:#9e4541"></path><path d="M240.34,218.12c-2.27,9.42-3.43,13.36-.22,19.54,4.83,9.29,16.9,10,21.94,1.47,4.54-7.7,7.49-21.81-.43-28.27A13.22,13.22,0,0,0,240.34,218.12Z" style="fill:#b55b52"></path><path d="M238.67,223.65s19.5-6.07,10.58-16.32c-10.5,2.59-10.58,5.67-10.58,5.67Z" style="fill:#263238"></path><path d="M250.49,213.17c7.34.76,14.64,5.08,17,9,1.36-6.67-3.42-15-8.74-16.17S247,207.33,247,207.33Z" style="fill:#263238"></path><path d="M235.49,224.37a7.35,7.35,0,0,0,1.9,5.06c1.68,1.82,3.72.63,4.26-1.62.48-2,.19-5.43-2-6.41S235.55,222.09,235.49,224.37Z" style="fill:#b55b52"></path><path d="M317.91,323.81c-22.14-.31-36.65,14.89-36.65,14.89,2.12,6.15,3.46,10.77,3.46,10.77,12.13-2.15,25.91-3.1,37.27-5.83,10.26-2.47,11.44-14.85,10.39-20s-6.87-6.34-12.57-8c-6.51-1.87-18.94-1.92-27.85-1.86-9.4.05-21.75.94-28.15,2.29,0,0-13.59-.43-23.65-.18-5.88-.84-2.42,7.7,6.86,14.93a44.66,44.66,0,0,0,34.13,8.59h.07" style="fill:#263238"></path><path d="M283.34,348l-2.82-10.6a.77.77,0,0,0-.84-.59l-8.71,1a1.56,1.56,0,0,0-1.28,2c1.05,3.68,1.74,5.4,3,10.06.76,2.87,2,8.88,3.09,12.84s5,3.13,4.95,1.39c-.38-7.82,1-11.31,2.47-14.36A2.54,2.54,0,0,0,283.34,348Z" style="fill:#263238"></path><path d="M284.51,354.25a1.18,1.18,0,0,1-.65-.2c-1.17-.76-1.51-3.55-1.61-5.14a.16.16,0,0,1,.28-.12c.33.36,3.23,3.58,2.92,4.88a.67.67,0,0,1-.46.48A1.18,1.18,0,0,1,284.51,354.25Zm-1.9-4.88c.2,2.31.72,3.94,1.43,4.4a.89.89,0,0,0,.84.08.36.36,0,0,0,.25-.26C285.34,352.74,283.6,350.51,282.61,349.37Z" style="fill:#2563EB"></path><polygon points="283.37 349.88 279.71 336.15 284.53 334.16 291.32 348.9 283.37 349.88" style="fill:#2563EB"></polygon><polygon points="283.37 349.88 279.71 336.15 284.53 334.16 291.32 348.9 283.37 349.88" style="fill:#fafafa;opacity:0.6000000000000001"></polygon><path d="M286.26,351.27c-1.17,0-3.27-1.41-4-2.27a.18.18,0,0,1,0-.16.19.19,0,0,1,.12-.11c.11,0,2.68-.47,4,.44a1.58,1.58,0,0,1,.69,1.09c.1.59-.15.84-.37.93A.84.84,0,0,1,286.26,351.27ZM282.74,349c1,1,3.12,2.18,3.79,1.89.06,0,.25-.12.18-.59a1.25,1.25,0,0,0-.56-.87C285.22,348.78,283.44,348.92,282.74,349Z" style="fill:#2563EB"></path><path d="M235.79,316.58c-12.31-1.58-30.52-2.19-31.56,10.64s7.81,26,31.88,26.71,29.27-5.34,30.13-10.5c1.1-6.52,3-8.18-2.75-11.13S256.68,319.25,235.79,316.58Z" style="fill:#263238"></path><path d="M261.83,350.19,259,339.59a.77.77,0,0,1,.44-.93l8.07-3.44a1.57,1.57,0,0,1,2.08,1.06c.92,3.72,1.18,5.56,2.42,10.22.76,2.87,2.64,8.72,3.7,12.68s-2.81,5.22-3.6,3.66c-3.56-7-6.53-9.3-9.29-11.23A2.55,2.55,0,0,1,261.83,350.19Z" style="fill:#263238"></path><path d="M263.32,356.37a.65.65,0,0,1-.49-.21c-.92-1,0-5.2.1-5.68a.16.16,0,0,1,.14-.13.15.15,0,0,1,.16.09c.71,1.43,1.8,4,1.16,5.26a1.21,1.21,0,0,1-.93.66Zm-.17-5.35c-.29,1.49-.69,4.28-.09,4.91a.36.36,0,0,0,.35.11.9.9,0,0,0,.69-.49C264.63,354.52,263.68,352.18,263.15,351Z" style="fill:#2563EB"></path><path d="M260.48,354.62c-.24,0-.53-.12-.72-.63a1.65,1.65,0,0,1,.05-1.29c.66-1.42,3.12-2.31,3.22-2.34a.15.15,0,0,1,.16,0,.14.14,0,0,1,.06.15c-.21,1.24-1.62,4-2.71,4.08Zm2.38-3.84c-.65.27-2.27,1-2.75,2.06a1.26,1.26,0,0,0,0,1c.16.44.38.42.44.41C261.24,354.22,262.51,352.15,262.86,350.78Z" style="fill:#2563EB"></path><polygon points="262.28 350.06 259.98 337.2 254.36 336.99 254.79 353.36 262.28 350.06" style="fill:#2563EB"></polygon><polygon points="262.28 350.06 259.98 337.2 254.36 336.99 254.79 353.36 262.28 350.06" style="fill:#fafafa;opacity:0.6000000000000001"></polygon><path d="M253.57,225c-.23.75,0,1.48.48,1.64s1.08-.34,1.31-1.09,0-1.49-.48-1.64S253.81,224.26,253.57,225Z" style="fill:#263238"></path><path d="M262.08,227.62c-.23.76,0,1.49.48,1.64s1.08-.34,1.31-1.09,0-1.49-.48-1.64S262.32,226.87,262.08,227.62Z" style="fill:#263238"></path><path d="M263.16,226.51l2,0S263.77,227.67,263.16,226.51Z" style="fill:#263238"></path><path d="M259.44,228.23a20.94,20.94,0,0,0,1.21,5.63,3.39,3.39,0,0,1-2.84-.33Z" style="fill:#a02724"></path><path d="M253.6,235.18a.07.07,0,0,1-.06,0,6.67,6.67,0,0,1-3.19-3.83.14.14,0,0,1,.1-.18.15.15,0,0,1,.18.1,6.55,6.55,0,0,0,3,3.65.15.15,0,0,1-.07.28Z" style="fill:#263238"></path><path d="M253.15,220a.3.3,0,0,1-.16-.55,4.41,4.41,0,0,1,4-.53.31.31,0,0,1,.16.39.29.29,0,0,1-.39.15,3.87,3.87,0,0,0-3.47.49A.3.3,0,0,1,253.15,220Z" style="fill:#263238"></path><path d="M267.47,225.06a.29.29,0,0,1-.26-.16,3.89,3.89,0,0,0-2.82-2.08.29.29,0,0,1-.27-.32.3.3,0,0,1,.32-.26,4.38,4.38,0,0,1,3.29,2.39.3.3,0,0,1-.12.4A.35.35,0,0,1,267.47,225.06Z" style="fill:#263238"></path><path d="M254.65,223.89l2,0S255.26,225.06,254.65,223.89Z" style="fill:#263238"></path><path d="M227.61,313.72l-.32,3.55c-.14.28.19.56.65.56h40.12c.35,0,.65-.18.67-.4l.36-3.55c0-.25-.28-.46-.68-.46H228.25A.71.71,0,0,0,227.61,313.72Z" style="fill:#2563EB"></path><path d="M227.61,313.72l-.32,3.55c-.14.28.19.56.65.56h40.12c.35,0,.65-.18.67-.4l.36-3.55c0-.25-.28-.46-.68-.46H228.25A.71.71,0,0,0,227.61,313.72Z" style="opacity:0.30000000000000004"></path><path d="M233,318.21h-1.07c-.22,0-.38-.11-.37-.24l.51-4.62c0-.13.2-.24.41-.24h1.08c.21,0,.38.11.36.24l-.5,4.62C233.4,318.1,233.22,318.21,233,318.21Z" style="fill:#263238"></path><path d="M265,318.21H264c-.22,0-.38-.11-.36-.24l.5-4.62c0-.13.2-.24.42-.24h1.07c.22,0,.38.11.36.24l-.5,4.62C265.44,318.1,265.25,318.21,265,318.21Z" style="fill:#263238"></path><path d="M249,318.21h-1.08c-.21,0-.38-.11-.36-.24l.5-4.62c0-.13.21-.24.42-.24h1.08c.21,0,.37.11.36.24l-.51,4.62C249.42,318.1,249.23,318.21,249,318.21Z" style="fill:#263238"></path><polygon points="338.92 288.64 269.32 288.64 259.23 329.74 328.83 329.74 338.92 288.64" style="fill:#fafafa"></polygon><polygon points="303.66 322.08 261.09 332.01 233.77 324.35 234.05 322.08 303.66 322.08" style="fill:#fafafa"></polygon><path d="M227.1,271c-.84,2.72-1.74,5.55-2.54,8.35s-1.65,5.59-2.38,8.39-1.43,5.59-2,8.33c-.26,1.36-.5,2.72-.66,4a19,19,0,0,0-.18,2.72,4.85,4.85,0,0,0,1.18,1.95,16.83,16.83,0,0,0,2.69,2.37,49.23,49.23,0,0,0,7,4.22,153,153,0,0,0,16,6.75l-1.21,4.9a96.28,96.28,0,0,1-17.81-4.71,52.11,52.11,0,0,1-8.71-4.13,26.45,26.45,0,0,1-4.25-3.22,13.33,13.33,0,0,1-3.63-5.48,10.17,10.17,0,0,1-.43-2l0-.52,0-.38,0-.69c0-.9,0-1.76,0-2.6.09-1.68.27-3.27.5-4.83.45-3.14,1-6.16,1.75-9.14s1.44-5.93,2.27-8.85,1.71-5.79,2.73-8.71Z" style="fill:#b55b52"></path><path d="M221.17,256.83c-4,1.21-10,16.8-10,16.8l15.41,11s6.93-13.33,5.26-18.47C230.05,260.83,225.71,255.45,221.17,256.83Z" style="fill:#2563EB"></path><path d="M221.17,256.83c-4,1.21-10,16.8-10,16.8l15.41,11s6.93-13.33,5.26-18.47C230.05,260.83,225.71,255.45,221.17,256.83Z" style="fill:#fafafa;opacity:0.5"></path><path d="M244.27,318.39l9.26-2.34-4.41,8.89s-6.26.27-8.33-3.22Z" style="fill:#b55b52"></path><polygon points="261.02 319.43 256.92 326.68 249.12 324.94 253.53 316.05 261.02 319.43" style="fill:#b55b52"></polygon><polygon points="341.06 288.64 271.46 288.64 261.37 329.74 330.97 329.74 341.06 288.64" style="fill:#2563EB"></polygon><polygon points="330.97 329.74 330.69 332.01 261.09 332.01 261.37 329.74 330.97 329.74" style="fill:#2563EB"></polygon><rect x="383.61" y="379.57" width="1" height="11.99" style="fill:#2563EB"></rect><rect x="383.61" y="379.57" width="1" height="11.99" style="opacity:0.30000000000000004"></rect><rect x="383.61" y="396.17" width="1" height="4.26" style="fill:#2563EB"></rect><rect x="383.61" y="396.17" width="1" height="4.26" style="opacity:0.30000000000000004"></rect><path d="M147,311.31h0c-.56,0-1.12,0-1.69.05-11.88.85-21.49,10.91-22.24,23.29a25.69,25.69,0,0,0,.77,8.13,130.39,130.39,0,0,1,3.76,32.55v32a4.11,4.11,0,0,0,4,4.2H229V311.31Z" style="fill:#2563EB"></path><path d="M147,311.31h0c-.56,0-1.12,0-1.69.05-11.88.85-21.49,10.91-22.24,23.29a25.69,25.69,0,0,0,.77,8.13,130.39,130.39,0,0,1,3.76,32.55v32a4.11,4.11,0,0,0,4,4.2H229V311.31Z" style="opacity:0.30000000000000004"></path><path d="M253,336.29c0-14.37-11.66-25.92-25.67-24.92-11.88.85-21.49,10.91-22.24,23.29a25.69,25.69,0,0,0,.77,8.13,130.39,130.39,0,0,1,3.76,32.55v32a4.11,4.11,0,0,0,4,4.2h30.75a4.12,4.12,0,0,0,4-4.2V373.46A118.43,118.43,0,0,1,252.08,343,25.75,25.75,0,0,0,253,336.29Z" style="fill:#2563EB"></path></g></svg>