<svg width="68" height="45" viewBox="0 0 68 45" fill="none" xmlns="http://www.w3.org/2000/svg">
<path d="M2.37145 44.1818C1.06173 44.1818 0 43.1201 0 41.8104V27.8182C0 22.3957 4.39575 18 9.81818 18V18C11.8295 18 13.517 18.375 14.8807 19.125C16.2528 19.875 17.2884 20.9062 17.9872 22.2188C18.6946 23.5227 19.0483 25.0057 19.0483 26.6676C19.0483 28.3466 18.6946 29.8381 17.9872 31.142C17.2798 32.446 16.2358 33.473 14.8551 34.223C13.4744 34.9645 11.7741 35.3352 9.75426 35.3352H5.19673C4.12002 35.3352 3.24716 34.4624 3.24716 33.3857V33.3857C3.24716 32.3089 4.12001 31.4361 5.19673 31.4361H9.11506C10.2912 31.4361 11.2543 31.2315 12.0043 30.8224C12.7543 30.4134 13.3082 29.8509 13.6662 29.1349C14.0327 28.419 14.2159 27.5966 14.2159 26.6676C14.2159 25.7386 14.0327 24.9205 13.6662 24.2131C13.3082 23.5057 12.75 22.956 11.9915 22.5639C11.2415 22.1634 10.2741 21.9631 9.08949 21.9631V21.9631C6.68893 21.9631 4.7429 23.9091 4.7429 26.3097V41.8104C4.7429 43.1201 3.68116 44.1818 2.37145 44.1818V44.1818Z" fill="#000C25"/>
<path d="M24.1555 42.562C23.8309 43.5297 22.9244 44.1818 21.9037 44.1818V44.1818C20.2659 44.1818 19.1196 42.563 19.6635 41.0181L26.7947 20.7621C27.3773 19.1071 28.9408 18 30.6953 18V18C32.4491 18 34.0122 19.1063 34.5953 20.7604L41.7367 41.0175C42.2814 42.5624 41.1352 44.1818 39.4971 44.1818V44.1818C38.477 44.1818 37.5709 43.5304 37.246 42.5634L30.8294 23.4662C30.81 23.4083 30.7557 23.3693 30.6946 23.3693V23.3693C30.6335 23.3693 30.5792 23.4084 30.5598 23.4663L24.1555 42.562ZM23.7784 35.821C23.7784 34.769 24.6312 33.9162 25.6832 33.9162H35.6804C36.7324 33.9162 37.5852 34.769 37.5852 35.821V35.821C37.5852 36.873 36.7324 37.7259 35.6804 37.7259H25.6832C24.6312 37.7259 23.7784 36.873 23.7784 35.821V35.821Z" fill="#000C25"/>
<path d="M48.6722 44.1818C47.3625 44.1818 46.3008 43.1201 46.3008 41.8104V20.3714C46.3008 19.0617 47.3625 18 48.6722 18V18C49.9819 18 51.0437 19.0617 51.0437 20.3714V26.0838C51.0437 27.7407 52.3868 29.0838 54.0437 29.0838H60.1758C61.8326 29.0838 63.1758 27.7407 63.1758 26.0838V20.3778C63.1758 19.0646 64.2404 18 65.5536 18V18C66.8669 18 67.9315 19.0646 67.9315 20.3778V41.804C67.9315 43.1172 66.8669 44.1818 65.5536 44.1818V44.1818C64.2404 44.1818 63.1758 43.1172 63.1758 41.804V36.0597C63.1758 34.4028 61.8326 33.0597 60.1758 33.0597H54.0437C52.3868 33.0597 51.0437 34.4028 51.0437 36.0597V41.8104C51.0437 43.1201 49.9819 44.1818 48.6722 44.1818V44.1818Z" fill="#000C25"/>
<path d="M18.4166 5.54169V6.33335L31.7083 9.50002L42.5833 6.33335V5.54169L29.2916 3.16669L18.4166 5.54169Z" fill="#000C25"/>
<path d="M20.8334 8.70831V12.0864C20.8334 13.3696 25.6679 15.1683 31.7084 15.0424C36.5417 14.9427 39.6665 13.4813 40.1667 12.2977C40.1957 12.2273 40.2114 12.1568 40.2114 12.0856V8.70831L31.7084 11.0833L25.6667 9.7636V12.3072L24.4584 12.0191V9.49998L20.8334 8.70831Z" fill="#000C25"/>
</svg>
